<svg xmlns="http://www.w3.org/2000/svg" viewBox="0 0 82.26 80.03"><defs><style>.cls-1{fill:#fff;}</style></defs><title>entertain</title><g id="Layer_2" data-name="Layer 2"><g id="Layer_1-2" data-name="Layer 1"><g id="Layer_2-2" data-name="Layer 2"><g id="Layer_1-2-2" data-name="Layer 1-2"><path class="cls-1" d="M80,0,24,8a2.07,2.07,0,0,0-1.72,2V59a10.87,10.87,0,0,0-4.5-1.25,17.26,17.26,0,0,0-9.62,2.47,17.36,17.36,0,0,0-7,7.12A9,9,0,0,0,1,75.87,9,9,0,0,0,8.47,80a17.4,17.4,0,0,0,9.66-2.5,17.29,17.29,0,0,0,7-7.09A11.94,11.94,0,0,0,26.25,65V27.77l52-7.44V51a10.87,10.87,0,0,0-4.5-1.25,18.47,18.47,0,0,0-16.59,9.59A9,9,0,0,0,57,67.87,9,9,0,0,0,64.47,72a17.4,17.4,0,0,0,9.66-2.5,17.29,17.29,0,0,0,7-7.09A11.79,11.79,0,0,0,82.25,57V2a2,2,0,0,0-2-2ZM78.25,4.31v12l-52,7.44v-12ZM72.68,53.74h.81c2.14.14,3.58.91,4.28,2.13s.67,2.86-.28,4.78A14.46,14.46,0,0,1,64.72,68c-2.14-.14-3.58-.95-4.28-2.16s-.67-2.83.28-4.75a13.68,13.68,0,0,1,5.41-5.44,14,14,0,0,1,6.56-1.94Zm-56,8h.81c2.14.14,3.58.91,4.28,2.13s.67,2.86-.28,4.78a13.58,13.58,0,0,1-5.37,5.44A13.62,13.62,0,0,1,8.72,76c-2.14-.14-3.58-.95-4.28-2.16s-.67-2.84.28-4.74a13.68,13.68,0,0,1,5.41-5.44A14,14,0,0,1,16.68,61.74Z"/></g></g></g></g></svg>