<svg xmlns="http://www.w3.org/2000/svg" viewBox="0 0 93.2 33.12"><defs><style>.cls-1{fill:#fff;}</style></defs><title>exercise</title><g id="Layer_2" data-name="Layer 2"><g id="Layer_1-2" data-name="Layer 1"><g id="Layer_2-2" data-name="Layer 2"><g id="Layer_1-2-2" data-name="Layer 1-2"><path class="cls-1" d="M73.72,0h-.57a2.18,2.18,0,0,0-2.28,2.06v29a2.18,2.18,0,0,0,2.28,2.05h.57a2.18,2.18,0,0,0,2.28-2v-29A2.18,2.18,0,0,0,73.72,0Z"/><path class="cls-1" d="M81.39,2.31H80.11a2,2,0,0,0-2.05,2h0V27.47a2.05,2.05,0,0,0,2.05,2h1.28a2.06,2.06,0,0,0,2.06-2V4.36A2.06,2.06,0,0,0,81.39,2.31Z"/><polygon class="cls-1" points="87.04 13.99 87.04 10.59 84.9 10.59 84.9 11.55 84.9 20.86 87 20.86 87 18.16 93.2 18.16 93.2 13.99 87.04 13.99"/><path class="cls-1" d="M20.06,0h-.57A2.18,2.18,0,0,0,17.2,2.06v29a2.18,2.18,0,0,0,2.28,2.05h.57a2.18,2.18,0,0,0,2.28-2v-29A2.18,2.18,0,0,0,20.06,0Z"/><path class="cls-1" d="M13.09,3.59H11.81A2.06,2.06,0,0,0,9.76,5.65V28.76a2.05,2.05,0,0,0,2.05,2h1.28a2.05,2.05,0,0,0,2.05-2V5.65A2.06,2.06,0,0,0,13.09,3.59Z"/><polygon class="cls-1" points="6.2 13.99 0 13.99 0 18.16 6.16 18.16 6.16 20.86 8.3 20.86 8.3 10.59 6.2 10.59 6.2 13.99"/><polygon class="cls-1" points="67.48 13.95 31.58 13.95 30.47 13.95 25.42 13.95 25.42 10.61 23.28 10.61 23.28 11.04 23.28 20.97 25.38 20.97 25.38 18.14 30.47 18.14 31.58 18.14 67.44 18.14 67.44 20.86 69.58 20.86 69.58 10.59 67.48 10.59 67.48 13.95"/></g></g></g></g></svg>