<svg xmlns="http://www.w3.org/2000/svg" viewBox="0 0 80.87 82.37"><defs><style>.cls-1{fill:#81c5d0;}.cls-2{fill:#b31aab;}</style></defs><title>location-artwork</title><g id="Layer_2" data-name="Layer 2"><g id="Layer_1-2" data-name="Layer 1"><circle class="cls-1" cx="39.96" cy="39.96" r="39.96" transform="translate(-15.03 26.93) rotate(-31.67)"/><path class="cls-2" d="M75.75,23.3A9.56,9.56,0,0,1,77.11,26c4.64,9.42,4.74,19.11,1.66,29-.41,1.32-.95,2.6-1.43,3.89a5,5,0,0,0-.84,1.75l-.43.85-4,5.95-.95,1.09-.22.32a.18.18,0,0,0-.16.16L67.88,72l-1.09.88a7.94,7.94,0,0,0-1.66,1.42l-1.69,1.13-2,1.33-1.28.75a20.38,20.38,0,0,0-3.77,1.82l-.48.21L52.07,80.8l-.43.18a17.41,17.41,0,0,0-3.76.8.21.21,0,0,0-.24.06h-.38l-.6.16a29,29,0,0,0-4.63.36,41.76,41.76,0,0,1-17.45-3.56A38.58,38.58,0,0,1,7,63.28c-.51-1-.29-1.6.8-2.17,2.72-1.42,5.36-3,8-4.54L73.25,23.72A2.48,2.48,0,0,1,75.75,23.3Z"/></g></g></svg>