<svg xmlns="http://www.w3.org/2000/svg" viewBox="0 0 70.22 58.7"><title>play</title><g id="Layer_2" data-name="Layer 2"><g id="Layer_1-2" data-name="Layer 1"><path d="M.9,58.7A1.09,1.09,0,0,0,2,57.8L6.9,2h5.9V44.7H11.1a.94.94,0,0,0-1,1v3.4a.94.94,0,0,0,1,1H31.2a.94.94,0,0,0,1-1V45.7a.94.94,0,0,0-1-1h-2V2H40.1V44.7H38.4a.94.94,0,0,0-1,1v3.4a.94.94,0,0,0,1,1H58.5a.94.94,0,0,0,1-1V45.7a.94.94,0,0,0-1-1h-2V2h6.8l4.9,55.8a1,1,0,0,0,1,.9h.1a.9.9,0,0,0,.9-1.1L65.2.9a1,1,0,0,0-1-.9H6A1,1,0,0,0,5,.9L0,57.6A1.17,1.17,0,0,0,.9,58.7ZM30.3,48.1H12.2V46.7H30.3Zm-3-3.4H14.9V2H27.3Zm30.3,3.4H39.4V46.7H57.5v1.4Zm-3-3.4H42.2V2H54.6Z"/></g></g></svg>