<svg xmlns="http://www.w3.org/2000/svg" viewBox="0 0 95.43 95.43"><defs><style>.cls-1{fill:#a53983;}.cls-2{fill:#ec297b;}</style></defs><title>play-artwork-01</title><g id="Layer_2" data-name="Layer 2"><g id="Layer_1-2" data-name="Layer 1"><polygon class="cls-1" points="13.65 13.64 13.64 13.64 13.65 13.64 13.65 13.64"/><path class="cls-1" d="M10.18,17.61A48.19,48.19,0,0,0,81.79,81.79L13.64,13.64A48.66,48.66,0,0,0,10.18,17.61Z"/><polygon class="cls-1" points="81.79 81.79 81.79 81.78 81.79 81.79 81.79 81.79"/><path class="cls-2" d="M76.86,10.18a48.2,48.2,0,0,0-63.21,3.46h0L81.79,81.79h0a48.7,48.7,0,0,0,3.46-4A48.2,48.2,0,0,0,76.86,10.18Z"/></g></g></svg>