<svg xmlns="http://www.w3.org/2000/svg" viewBox="0 0 90 80"><title>shop</title><g id="Layer_2" data-name="Layer 2"><g id="Layer_1-2" data-name="Layer 1"><path d="M3,0A3,3,0,0,0,3,6H13c5,12.3,9.86,24.62,14.78,36.94L23.22,53.84A3,3,0,0,0,26,58H76a3,3,0,1,0,0-6H30.5l2.59-6.19L81.25,42a3.08,3.08,0,0,0,2.69-2.31l6-26A3.14,3.14,0,0,0,87,10H21L17.78,1.88A3.08,3.08,0,0,0,15,0ZM23.44,16H42v9H27ZM48,16H60v9H48Zm18,0H83.22l-2.06,9H66ZM29.44,31H42v8.09l-9,.72ZM48,31H60v6.66l-12,1Zm18,0H79.75l-1.19,5.19L66,37.19ZM36,60A10,10,0,1,0,46,70,10,10,0,0,0,36,60Zm30,0A10,10,0,1,0,76,70,10,10,0,0,0,66,60ZM36,66a4,4,0,1,1-4,4A4,4,0,0,1,36,66Zm30,0a4,4,0,1,1-4,4A4,4,0,0,1,66,66Z"/></g></g></svg>