<svg xmlns="http://www.w3.org/2000/svg" viewBox="0 0 311.73 232.44"><defs><style>.cls-1{fill:#fff;}</style></defs><title>eat-and-drink</title><g id="Layer_2" data-name="Layer 2"><g id="Layer_1-2" data-name="Layer 1"><g id="Layer_2-2" data-name="Layer 2"><g id="Layer_1-2-2" data-name="Layer 1-2"><path class="cls-1" d="M267.76,232.44H163l6-60.07H310.37l-.64,19.46A41.82,41.82,0,0,1,267.76,232.44Zm-89.87-13.5h89.87a28.38,28.38,0,0,0,28.48-27.56l.18-5.52H181.19Z"/><path class="cls-1" d="M311.68,136.42H170.87l8-73h71.4a61.53,61.53,0,0,1,61.46,61.46Zm-125.77-13.5H298.14a48,48,0,0,0-47.92-46H190.93Z"/><path class="cls-1" d="M294.66,163.54H170.43l1.71-18.3H294.66a9,9,0,0,1,8.74,9.15h0A9,9,0,0,1,294.66,163.54Z"/><path class="cls-1" d="M183.34,21.41,136.44,0,123.93,50h-5.67a59.65,59.65,0,1,0-65.42,70.43L64,232.44h86.76L169,50H137.84l7.76-31,32.14,14.67a6.75,6.75,0,0,0,5.61-12.28ZM76.23,218.94,67.35,130h80.1l-8.89,88.91ZM154.1,63.54l-6.16,61.58H66.86L65.1,107.45l-6-.08a46.15,46.15,0,1,1,46.58-50l.51,6.19h47.93Z"/><path class="cls-1" d="M284.28,117.2a2.46,2.46,0,0,1-2.36-1.79c-4.81-17-24.92-23.73-25.12-23.8a2.46,2.46,0,0,1,1.52-4.67c.93.3,22.79,7.59,28.33,27.13a2.46,2.46,0,0,1-2.36,3.12Z"/><path class="cls-1" d="M28.11,26.42"/><path class="cls-1" d="M32.77,31.85A40.69,40.69,0,0,0,20.09,56.69L56.36,60Z"/><path class="cls-1" d="M101,63.9c.37-11.94-3.52-20.77-8.42-27.11,0,0-28.22,23.84-28.19,23.9Z"/><path class="cls-1" d="M65.3,21.27,62.08,58.12,90.53,34.3A40.61,40.61,0,0,0,65.3,21.27Z"/><path class="cls-1" d="M62.08,21a41.42,41.42,0,0,0-26.85,8.72L58.84,57.9Z"/><path class="cls-1" d="M64,64.11,87.45,92a40.65,40.65,0,0,0,13.27-24.89S64.08,64,64,64.11Z"/><path class="cls-1" d="M61.44,66h-.07L58.2,102.2A41.09,41.09,0,0,0,85,94.1Z"/><path class="cls-1" d="M56.1,63.19,19.82,59.88a40.58,40.58,0,0,0,8.46,26.64Z"/><path class="cls-1" d="M30.37,89A40.61,40.61,0,0,0,55,101.94L58.15,65.7Z"/></g></g></g></g></svg>