<svg xmlns="http://www.w3.org/2000/svg" viewBox="0 0 162.01 162.13"><defs><style>.cls-1{fill:none;}.cls-2{fill:#67cfe3;}.cls-3{fill:#e11383;}.cls-4{fill:#b31aab;}</style></defs><title>entertain-artwork</title><g id="Layer_2" data-name="Layer 2"><g id="Layer_1-2" data-name="Layer 1"><path class="cls-1" d="M148.27,35.9q-.62-.92-1.26-1.82Q147.65,35,148.27,35.9Z"/><path class="cls-1" d="M153.94,45.73q-1-2.08-2.14-4.09Q152.92,43.65,153.94,45.73Z"/><path class="cls-1" d="M151.23,40.65q-.82-1.42-1.7-2.81Q150.41,39.22,151.23,40.65Z"/><path class="cls-1" d="M154.09,46.06l-.14-.3Z"/><path class="cls-1" d="M161.84,75.64a81,81,0,0,0-1.37-10.45A81,81,0,0,1,161.84,75.64Z"/><path class="cls-1" d="M159.29,60.13a80.29,80.29,0,0,0-3.84-11.06A80.31,80.31,0,0,1,159.29,60.13Z"/><path class="cls-1" d="M131.2,17.46q-1.17-.93-2.37-1.81Q130,16.54,131.2,17.46Z"/><path class="cls-1" d="M122,11.14c-1.86-1.09-3.75-2.12-5.7-3.07C118.24,9,120.14,10.05,122,11.14Z"/><path class="cls-2" d="M155.65,112.54A81,81,0,0,1,81,162v.11h81V81A80.75,80.75,0,0,1,155.65,112.54Z"/><path class="cls-2" d="M93.34.94c2,.31,4,.71,5.95,1.17q1.79.41,3.55.9,2.46.69,4.86,1.52A80.49,80.49,0,0,1,116.13,8l.17.09c1.95.94,3.84,2,5.7,3.07q1.09.64,2.15,1.31c1.6,1,3.16,2.08,4.69,3.2q1.2.88,2.37,1.81A81.52,81.52,0,0,1,147,34.07q.64.9,1.26,1.82t1.26,1.94q.88,1.39,1.7,2.81l.57,1q1.12,2,2.14,4.09l0,0,.14.3c.47,1,.92,2,1.36,3a80.29,80.29,0,0,1,3.84,11.06q.66,2.5,1.17,5.06a81,81,0,0,1,1.37,10.45Q162,78.3,162,81V0H81c2.19,0,4.35.11,6.49.28C89.47.44,91.42.64,93.34.94Z"/><path class="cls-3" d="M81,0h0a81,81,0,0,0,0,162V0Z"/><path class="cls-4" d="M155.65,112.54A80.75,80.75,0,0,0,162,81q0-2.71-.18-5.37a81,81,0,0,0-1.37-10.45q-.51-2.56-1.17-5.06a80.31,80.31,0,0,0-3.84-11.06c-.43-1-.88-2-1.36-3l-.14-.3,0,0q-1-2.08-2.14-4.09l-.57-1q-.82-1.42-1.7-2.81-.62-1-1.26-1.94T147,34.07A81.52,81.52,0,0,0,131.2,17.46q-1.17-.92-2.37-1.81c-1.53-1.12-3.09-2.19-4.69-3.2q-1.06-.67-2.15-1.31c-1.86-1.09-3.75-2.12-5.7-3.07L116.13,8a80.49,80.49,0,0,0-8.43-3.47q-2.4-.84-4.86-1.52-1.76-.49-3.55-.9c-2-.45-3.94-.86-5.95-1.17S89.47.44,87.5.28C85.36.11,83.19,0,81,0h0V162h0A81,81,0,0,0,155.65,112.54Z"/></g></g></svg>