<svg xmlns="http://www.w3.org/2000/svg" viewBox="0 0 176.11 48.99"><defs><style>.cls-1{fill:#fff;}</style></defs><title>hydepark-logo</title><g id="Layer_2" data-name="Layer 2"><g id="Layer_1-2" data-name="Layer 1"><polygon class="cls-1" points="23.21 14.45 21.49 14.45 21.49 25.71 12.46 25.73 12.46 14.45 10.74 14.45 10.74 27.46 23.21 27.43 23.21 14.45"/><rect class="cls-1" x="3.58" y="14.45" width="1.72" height="34.54"/><rect class="cls-1" y="14.45" width="1.72" height="34.54"/><rect class="cls-1" x="28.64" y="14.45" width="1.72" height="34.54"/><rect class="cls-1" x="32.22" y="14.45" width="1.72" height="34.54"/><polygon class="cls-1" points="25.06 29.07 8.88 29.07 8.88 14.45 7.16 14.45 7.16 30.79 26.78 30.79 26.78 14.45 25.06 14.45 25.06 29.07"/><polygon class="cls-1" points="7.16 48.99 8.88 48.99 8.88 34.13 25.06 34.13 25.06 42.4 17.9 42.4 17.9 48.99 19.62 48.99 19.62 44.13 21.48 44.13 21.48 48.99 23.2 48.99 23.2 44.13 25.06 44.13 25.06 48.99 26.78 48.99 26.78 32.41 7.16 32.41 7.16 48.99"/><polygon class="cls-1" points="23.2 35.73 10.74 35.73 10.74 48.99 12.46 48.99 12.46 37.46 21.48 37.46 21.48 39.07 14.32 39.07 14.32 48.99 16.04 48.99 16.04 40.8 23.2 40.8 23.2 35.73"/><polygon class="cls-1" points="19.62 14.45 17.9 14.45 17.9 22.39 16.04 22.39 16.04 14.45 14.32 14.45 14.32 24.12 19.62 24.12 19.62 14.45"/><polygon class="cls-1" points="60.77 26.41 50.7 26.41 50.7 17.88 48.32 17.88 48.32 36.04 50.7 36.04 50.7 27.13 60.77 27.13 60.77 36.04 63.15 36.04 63.15 17.88 60.77 17.88 60.77 26.41"/><polygon class="cls-1" points="73.73 27.04 68.35 17.88 65.66 17.88 71.57 27.89 71.57 36.04 73.95 36.04 73.95 28.11 79.95 17.88 79.1 17.88 73.73 27.04"/><path class="cls-1" d="M87,17.88H82.17V36H87c5.47,0,9.87-3.7,9.87-9.08S92.49,17.88,87,17.88ZM87,35.31H84.55V18.6H87c4.07,0,7.42,3.2,7.42,8.36S91,35.31,87,35.31Z"/><polygon class="cls-1" points="99.86 36.04 110.19 36.04 110.19 35.31 102.24 35.31 102.24 27.13 108.9 27.13 108.9 26.41 102.24 26.41 102.24 18.6 110.19 18.6 110.19 17.88 99.86 17.88 99.86 36.04"/><path class="cls-1" d="M124.1,17.88h-4.75V36h2.38V27.88h2.37c3.5,0,6.49-1.48,6.49-5S127.6,17.88,124.1,17.88Zm-.67,9.28h-1.7V18.6h1.7c3.28,0,4.63,1.46,4.63,4.28S126.71,27.16,123.43,27.16Z"/><path class="cls-1" d="M129.41,36h.75l2.21-5.5h7.32l2.21,5.5h2.5L136.9,17.41Zm3.24-6.22L136,21.43l3.37,8.38Z"/><path class="cls-1" d="M152,27.88c3.5,0,6.49-1.48,6.49-5s-3-5-6.49-5H147.1V36h2.38V28.37L158.77,36h1.08L150,27.88Zm-2.57-9.28h1.9c3.28,0,4.63,1.46,4.63,4.28s-1.35,4.28-4.63,4.28h-1.9Z"/><polygon class="cls-1" points="168.72 24.64 173.98 17.88 173.03 17.88 164.53 28.87 164.53 17.88 162.15 17.88 162.15 36.04 164.53 36.04 164.53 30.07 167.23 26.58 173.28 36.04 176.11 36.04 168.72 24.64"/><path class="cls-1" d="M50.58,45.17a1.7,1.7,0,0,0,1.21-.49,1.73,1.73,0,0,0,.37-.54,1.64,1.64,0,0,0,0-1.29,1.7,1.7,0,0,0-.37-.54,1.75,1.75,0,0,0-.55-.36,1.69,1.69,0,0,0-.66-.13h-.86v3.36ZM48.87,41h1.71a2.49,2.49,0,0,1,1,.2,2.64,2.64,0,0,1,.82.55,2.59,2.59,0,0,1,.56.8,2.43,2.43,0,0,1,0,1.95,2.62,2.62,0,0,1-.55.8,2.59,2.59,0,0,1-.82.55,2.52,2.52,0,0,1-1,.2H48.87Z"/><polygon class="cls-1" points="55.31 40.97 55.31 46.02 58.74 46.02 58.74 45.17 56.16 45.17 56.16 43.91 58.74 43.91 58.74 43.08 56.16 43.08 56.16 41.81 58.74 41.81 58.74 40.97 55.31 40.97"/><polygon class="cls-1" points="65.14 40.97 63.53 44.13 61.91 40.97 60.95 40.97 63.53 46.02 66.1 40.97 65.14 40.97"/><polygon class="cls-1" points="68.2 40.97 68.2 46.02 71.63 46.02 71.63 45.17 69.06 45.17 69.06 43.91 71.63 43.91 71.63 43.08 69.06 43.08 69.06 41.81 71.63 41.81 71.63 40.97 68.2 40.97"/><polygon class="cls-1" points="74.53 40.97 74.53 46.02 77.95 46.02 77.95 45.17 75.38 45.17 75.38 40.97 74.53 40.97"/><path class="cls-1" d="M82.36,41.81a1.69,1.69,0,0,0-1.22.49,1.61,1.61,0,0,0-.5,1.19,1.64,1.64,0,0,0,.5,1.19,1.7,1.7,0,0,0,1.22.49,1.68,1.68,0,0,0,1.21-.49,1.63,1.63,0,0,0,.5-1.19,1.6,1.6,0,0,0-.5-1.19,1.66,1.66,0,0,0-1.21-.49m0-.84a2.48,2.48,0,0,1,1.82.74,2.4,2.4,0,0,1,.76,1.78,2.37,2.37,0,0,1-.76,1.78,2.59,2.59,0,0,1-3.63,0,2.48,2.48,0,0,1,0-3.57A2.47,2.47,0,0,1,82.36,41"/><path class="cls-1" d="M88.12,41.81v1.68h1.72a.83.83,0,0,0,.6-.25.8.8,0,0,0,.25-.59.81.81,0,0,0-.25-.6.83.83,0,0,0-.6-.25Zm0,2.52V46h-.85V41h2.57a1.67,1.67,0,0,1,1.21.5,1.66,1.66,0,0,1,0,2.39,1.68,1.68,0,0,1-1.21.49Z"/><polygon class="cls-1" points="96.52 43.49 93.94 40.97 93.94 46.02 94.8 46.02 94.8 43 96.52 44.69 98.23 43 98.23 46.02 99.1 46.02 99.1 40.97 96.52 43.49"/><polygon class="cls-1" points="101.54 40.97 101.54 46.02 104.97 46.02 104.97 45.17 102.39 45.17 102.39 43.91 104.97 43.91 104.97 43.08 102.39 43.08 102.39 41.81 104.97 41.81 104.97 40.97 101.54 40.97"/><polygon class="cls-1" points="110.95 40.96 110.95 43.99 107.53 40.96 107.53 46.01 108.38 46.01 108.38 42.99 111.81 46.02 111.81 46 111.81 46.01 111.81 40.96 110.95 40.96"/><polygon class="cls-1" points="114.08 40.97 114.08 41.81 115.8 41.81 115.8 46.02 116.66 46.02 116.66 41.81 118.38 41.81 118.38 40.97 114.08 40.97"/><path class="cls-1" d="M123,43.45a4.35,4.35,0,0,0-.71-.34h0c-.47-.19-.91-.37-.91-.72s.37-.56.73-.56a1.28,1.28,0,0,1,.82.31l.07.06.47-.56.05-.06-.06-.05a2.11,2.11,0,0,0-1.36-.49,1.45,1.45,0,0,0-1.56,1.34,1.28,1.28,0,0,0,.66,1.11,4.26,4.26,0,0,0,.7.33c.49.2.95.38.95.82a.69.69,0,0,1-.77.63,1.49,1.49,0,0,1-1.13-.58l-.06-.07-.58.56,0,0,0,.06a2.3,2.3,0,0,0,1.77.82,1.48,1.48,0,0,0,1.6-1.46A1.32,1.32,0,0,0,123,43.45Z"/><path class="cls-1" d="M54.29,5.08A3.11,3.11,0,0,1,52,5.86H49.72v3.6H48.56V.17H52A3.07,3.07,0,0,1,54.36,1a2.83,2.83,0,0,1,.71,2A2.87,2.87,0,0,1,54.29,5.08ZM52,1.23H49.72V4.79H52c1.25,0,1.87-.58,1.87-1.82S53.13,1.23,52,1.23Z"/><path class="cls-1" d="M58,9.54c-1,0-1.39-.58-1.39-1.62V0h1.11V7.85c0,.44.14.68.6.68a4.41,4.41,0,0,0,.46,0v.94A2.91,2.91,0,0,1,58,9.54Z"/><path class="cls-1" d="M65.31,9.55a.94.94,0,0,1-1-1h0a2.42,2.42,0,0,1-2.14,1.09,2.08,2.08,0,0,1-2.28-2c0-.85.55-2,2.36-2.07l2-.12V4.91a1.31,1.31,0,0,0-.34-1,1.49,1.49,0,0,0-1.09-.34A1.64,1.64,0,0,0,61.65,4a1.09,1.09,0,0,0-.33.8H60.24a2,2,0,0,1,.58-1.39,2.85,2.85,0,0,1,2-.71,2.32,2.32,0,0,1,2.33,1.27,2.56,2.56,0,0,1,.2,1V8.16c0,.35.14.45.37.45a1.59,1.59,0,0,0,.29,0v.83A1.54,1.54,0,0,1,65.31,9.55Zm-1-3.29-1.78.11c-.67,0-1.45.35-1.45,1.19,0,.59.37,1.14,1.31,1.14a1.87,1.87,0,0,0,1.36-.54,2.14,2.14,0,0,0,.56-1.51Z"/><path class="cls-1" d="M72.18,8.91a2.64,2.64,0,0,1-1.91.72,2.77,2.77,0,0,1-2.42-1.24,3.92,3.92,0,0,1-.55-2.24,3.92,3.92,0,0,1,.55-2.24,2.75,2.75,0,0,1,2.41-1.25,2.63,2.63,0,0,1,1.89.71,2.54,2.54,0,0,1,.79,1.7H71.8a1.66,1.66,0,0,0-.47-1,1.55,1.55,0,0,0-1.07-.41,1.68,1.68,0,0,0-1.15.43,2.71,2.71,0,0,0-.67,2.08,2.71,2.71,0,0,0,.67,2.08,1.67,1.67,0,0,0,1.15.43,1.55,1.55,0,0,0,1.13-.45,1.64,1.64,0,0,0,.45-1H73A2.5,2.5,0,0,1,72.18,8.91Z"/><path class="cls-1" d="M80.11,6.51H75.42a2.44,2.44,0,0,0,.64,1.66,1.88,1.88,0,0,0,2.45,0,1.4,1.4,0,0,0,.39-.72H80a2.45,2.45,0,0,1-1,1.64,3,3,0,0,1-1.69.5,2.83,2.83,0,0,1-2.2-1,3.75,3.75,0,0,1-.82-2.46A4,4,0,0,1,74.76,4a2.84,2.84,0,0,1,2.5-1.39,2.67,2.67,0,0,1,2,.85,3.42,3.42,0,0,1,.84,2.33ZM78.57,4.2a1.58,1.58,0,0,0-1.31-.6,1.85,1.85,0,0,0-1.82,2H79A2.33,2.33,0,0,0,78.57,4.2Z"/><path class="cls-1" d="M86.38,8.88a3.48,3.48,0,0,1-4.31,0,2.14,2.14,0,0,1-.64-1.52h1.11a1.29,1.29,0,0,0,.54,1,2.11,2.11,0,0,0,1.19.3,1.8,1.8,0,0,0,1.22-.37.94.94,0,0,0,.33-.72c0-.5-.35-.85-1-.94l-1.49-.2a1.72,1.72,0,0,1-1.62-1.78,1.91,1.91,0,0,1,.55-1.3,2.71,2.71,0,0,1,2-.73,2.63,2.63,0,0,1,2.11.84,1.89,1.89,0,0,1,.47,1.27H85.63a1.2,1.2,0,0,0-.38-.82,1.56,1.56,0,0,0-1.09-.35,1.72,1.72,0,0,0-.77.13,1,1,0,0,0-.67.89c0,.55.34.79.89.86.37.05.89.11,1.6.22a1.89,1.89,0,0,1,1.17,3.18Z"/><path class="cls-1" d="M96.74,8.91a2.53,2.53,0,0,1-1.87.72,2.32,2.32,0,0,1-2-1l-.08.86h-1V0h1.11V3.6a2.31,2.31,0,0,1,1.93-.94,2.6,2.6,0,0,1,1.82.67,3.92,3.92,0,0,1,1,2.83A3.93,3.93,0,0,1,96.74,8.91ZM94.68,3.6A1.53,1.53,0,0,0,93.61,4a2.74,2.74,0,0,0-.73,2.11,2.75,2.75,0,0,0,.73,2.11,1.53,1.53,0,0,0,1.07.43c1.48,0,1.87-1.32,1.87-2.54S96.16,3.6,94.68,3.6Z"/><path class="cls-1" d="M101.61,10.82a1.8,1.8,0,0,1-1.8,1.41,3.59,3.59,0,0,1-1-.13v-1a3.11,3.11,0,0,0,.79.1.94.94,0,0,0,1-.67L101,9.46,98.36,2.83h1.26l2,5.23,1.86-5.23h1.17Z"/></g></g></svg>