<svg xmlns="http://www.w3.org/2000/svg" viewBox="0 0 12.06 12.06"><defs><style></style></defs><title>instagram-dark</title><g id="Layer_2" data-name="Layer 2"><g id="Layer_1-2" data-name="Layer 1"><path class="cls-1" d="M1.55,0h9a1.55,1.55,0,0,1,1.55,1.55v9a1.55,1.55,0,0,1-1.55,1.55h-9A1.55,1.55,0,0,1,0,10.51v-9A1.55,1.55,0,0,1,1.55,0ZM8.79,1.34a.55.55,0,0,0-.54.54v1.3a.54.54,0,0,0,.54.54h1.36a.54.54,0,0,0,.54-.54V1.88a.55.55,0,0,0-.54-.54ZM10.7,5.1H9.64a3.5,3.5,0,0,1,.16,1A3.69,3.69,0,0,1,6,9.77,3.69,3.69,0,0,1,2.29,6.14a3.54,3.54,0,0,1,.15-1H1.34v5.1a.48.48,0,0,0,.48.48h8.4a.48.48,0,0,0,.48-.48ZM6,3.66A2.38,2.38,0,0,0,3.62,6,2.39,2.39,0,0,0,6,8.35,2.39,2.39,0,0,0,8.47,6,2.39,2.39,0,0,0,6,3.66Z"/></g></g></svg>
