<svg xmlns="http://www.w3.org/2000/svg" viewBox="0 0 276.66 182"><defs><style>.cls-1{fill:#fff;}.cls-2{fill:#67cfe3;}.cls-3{fill:#b31aab;}.cls-4{fill:#e11383;}</style></defs><title>landing-logo</title><g id="Layer_2" data-name="Layer 2"><g id="Layer_1-2" data-name="Layer 1"><path class="cls-1" d="M27.51,176.48a2.27,2.27,0,0,0-1.91-.84H24.54v5H25.6a2.28,2.28,0,0,0,1.91-.84,2.74,2.74,0,0,0,0-3.27m-2.07-2.13a4.1,4.1,0,0,1,2.57.71,3.89,3.89,0,0,1,0,6.12,4.07,4.07,0,0,1-2.57.71H23.09v-7.54Z"/><path class="cls-1" d="M27.51,176.48a2.27,2.27,0,0,0-1.91-.84H24.54v5H25.6a2.28,2.28,0,0,0,1.91-.84,2.74,2.74,0,0,0,0-3.27Zm-2.07-2.13a4.1,4.1,0,0,1,2.57.71,3.89,3.89,0,0,1,0,6.12,4.07,4.07,0,0,1-2.57.71H23.09v-7.54Z"/><path class="cls-1" d="M38.52,180.7A2.59,2.59,0,1,0,36,178.11a2.51,2.51,0,0,0,2.48,2.59m0-6.47a3.88,3.88,0,1,1-3.94,3.88,3.81,3.81,0,0,1,3.94-3.88"/><path class="cls-1" d="M38.52,180.7A2.59,2.59,0,1,0,36,178.11,2.51,2.51,0,0,0,38.52,180.7Zm0-6.47a3.88,3.88,0,1,1-3.94,3.88A3.81,3.81,0,0,1,38.52,174.23Z"/><polygon class="cls-1" points="57.19 175.64 57.19 177.2 59.43 177.2 59.43 178.49 57.19 178.49 57.19 180.59 60.26 180.59 60.26 181.88 55.78 181.88 55.78 174.35 60.16 174.35 60.16 175.64 57.19 175.64"/><polygon class="cls-1" points="57.19 175.64 57.19 177.2 59.43 177.2 59.43 178.49 57.19 178.49 57.19 180.59 60.26 180.59 60.26 181.88 55.78 181.88 55.78 174.35 60.16 174.35 60.16 175.64 57.19 175.64"/><polygon class="cls-1" points="65.8 174.35 67.25 174.35 69.25 179.49 71.26 174.35 72.71 174.35 69.75 181.88 68.76 181.88 65.8 174.35"/><polygon class="cls-1" points="65.8 174.35 67.25 174.35 69.25 179.49 71.26 174.35 72.71 174.35 69.75 181.88 68.76 181.88 65.8 174.35"/><polygon class="cls-1" points="79.94 175.64 79.94 177.2 82.18 177.2 82.18 178.49 79.94 178.49 79.94 180.59 83.01 180.59 83.01 181.88 78.53 181.88 78.53 174.35 82.91 174.35 82.91 175.64 79.94 175.64"/><polygon class="cls-1" points="79.94 175.64 79.94 177.2 82.18 177.2 82.18 178.49 79.94 178.49 79.94 180.59 83.01 180.59 83.01 181.88 78.53 181.88 78.53 174.35 82.91 174.35 82.91 175.64 79.94 175.64"/><path class="cls-1" d="M91.63,177.25a.84.84,0,0,0,.7-.23.91.91,0,0,0,0-1.15.83.83,0,0,0-.7-.24H90.47v1.62Zm-1.16,1.29v3.34h-1.4v-7.54h2.64a2.13,2.13,0,0,1,1.58.56,2.17,2.17,0,0,1,0,3.08,1.85,1.85,0,0,1-.72.44l2.71,3.46H93.55L91,178.55Z"/><path class="cls-1" d="M91.63,177.25a.84.84,0,0,0,.7-.23.91.91,0,0,0,0-1.15.83.83,0,0,0-.7-.24H90.47v1.62Zm-1.16,1.29v3.34h-1.4v-7.54h2.64a2.13,2.13,0,0,1,1.58.56,2.17,2.17,0,0,1,0,3.08,1.85,1.85,0,0,1-.72.44l2.71,3.46H93.55L91,178.55Z"/><polygon class="cls-1" points="103.32 178.47 103.32 181.88 101.94 181.88 101.94 178.47 99.49 174.35 101.06 174.35 102.64 177 104.2 174.35 105.77 174.35 103.32 178.47"/><polygon class="cls-1" points="103.32 178.47 103.32 181.88 101.94 181.88 101.94 178.47 99.49 174.35 101.06 174.35 102.64 177 104.2 174.35 105.77 174.35 103.32 178.47"/><polygon class="cls-1" points="115.98 174.35 115.98 175.64 114.03 175.64 114.03 181.88 112.61 181.88 112.61 175.64 110.66 175.64 110.66 174.35 115.98 174.35"/><polygon class="cls-1" points="115.98 174.35 115.98 175.64 114.03 175.64 114.03 181.88 112.61 181.88 112.61 175.64 110.66 175.64 110.66 174.35 115.98 174.35"/><polygon class="cls-1" points="127.07 178.49 123.33 178.49 123.33 181.88 121.88 181.88 121.88 174.35 123.33 174.35 123.33 177.2 127.07 177.2 127.07 174.35 128.51 174.35 128.51 181.88 127.07 181.88 127.07 178.49"/><polygon class="cls-1" points="127.07 178.49 123.33 178.49 123.33 181.88 121.88 181.88 121.88 174.35 123.33 174.35 123.33 177.2 127.07 177.2 127.07 174.35 128.51 174.35 128.51 181.88 127.07 181.88 127.07 178.49"/><rect class="cls-1" x="134.33" y="174.35" width="1.13" height="7.54"/><rect class="cls-1" x="134.33" y="174.35" width="1.13" height="7.54"/><polygon class="cls-1" points="141.28 174.35 142.29 174.35 146.46 179.26 146.46 174.35 147.91 174.35 147.91 181.88 146.89 181.88 142.72 176.97 142.72 181.88 141.28 181.88 141.28 174.35"/><polygon class="cls-1" points="141.28 174.35 142.29 174.35 146.46 179.26 146.46 174.35 147.91 174.35 147.91 181.88 146.89 181.88 142.72 176.97 142.72 181.88 141.28 181.88 141.28 174.35"/><path class="cls-1" d="M155.31,178.12a2.54,2.54,0,0,0,2.57,2.59,2.63,2.63,0,0,0,1.68-.58v-1.63h-1.93v-1.3H161v3.36a4,4,0,0,1-3.16,1.45,3.88,3.88,0,1,1,0-7.77,3.9,3.9,0,0,1,2.75,1.08l-.93,1a2.57,2.57,0,0,0-1.83-.78,2.51,2.51,0,0,0-2.5,2.59"/><path class="cls-1" d="M155.31,178.12a2.54,2.54,0,0,0,2.57,2.59,2.63,2.63,0,0,0,1.68-.58v-1.63h-1.93v-1.3H161v3.36a4,4,0,0,1-3.16,1.45,3.88,3.88,0,1,1,0-7.77,3.9,3.9,0,0,1,2.75,1.08l-.93,1a2.57,2.57,0,0,0-1.83-.78A2.51,2.51,0,0,0,155.31,178.12Z"/><path class="cls-1" d="M176.3,175.53a.43.43,0,0,0-.39.46,1.19,1.19,0,0,0,.35.71,1,1,0,0,0,.44-.71.42.42,0,0,0-.4-.46m.31,5.18a2,2,0,0,0,1.09-.29L176,178.33a1.35,1.35,0,0,0-.79,1.2,1.28,1.28,0,0,0,1.43,1.18m3.05-3.68a6.36,6.36,0,0,1,.22,1.51,3.91,3.91,0,0,1-.45,1.93l1.19,1.42h-1.68l-.39-.45a3.53,3.53,0,0,1-2,.56,2.58,2.58,0,0,1-2.72-2.47,2.69,2.69,0,0,1,1.3-2.21,2.44,2.44,0,0,1-.57-1.44A1.75,1.75,0,0,1,178,176a2.15,2.15,0,0,1-1,1.67l1.39,1.66a3.23,3.23,0,0,0,.1-.81,4.31,4.31,0,0,0-.18-1.19Z"/><path class="cls-1" d="M176.3,175.53a.43.43,0,0,0-.39.46,1.19,1.19,0,0,0,.35.71,1,1,0,0,0,.44-.71A.42.42,0,0,0,176.3,175.53Zm.31,5.18a2,2,0,0,0,1.09-.29L176,178.33a1.35,1.35,0,0,0-.79,1.2A1.28,1.28,0,0,0,176.61,180.7Zm3.05-3.68a6.36,6.36,0,0,1,.22,1.51,3.91,3.91,0,0,1-.45,1.93l1.19,1.42h-1.68l-.39-.45a3.53,3.53,0,0,1-2,.56,2.58,2.58,0,0,1-2.72-2.47,2.69,2.69,0,0,1,1.3-2.21,2.44,2.44,0,0,1-.57-1.44A1.75,1.75,0,0,1,178,176a2.15,2.15,0,0,1-1,1.67l1.39,1.66a3.23,3.23,0,0,0,.1-.81,4.31,4.31,0,0,0-.18-1.19Z"/><polygon class="cls-1" points="193.39 174.35 194.4 174.35 198.57 179.26 198.57 174.35 200.02 174.35 200.02 181.88 199 181.88 194.83 176.97 194.83 181.88 193.39 181.88 193.39 174.35"/><polygon class="cls-1" points="193.39 174.35 194.4 174.35 198.57 179.26 198.57 174.35 200.02 174.35 200.02 181.88 199 181.88 194.83 176.97 194.83 181.88 193.39 181.88 193.39 174.35"/><path class="cls-1" d="M208.5,180.7a2.59,2.59,0,1,0-2.48-2.59,2.51,2.51,0,0,0,2.48,2.59m0-6.47a3.88,3.88,0,1,1-3.94,3.88,3.81,3.81,0,0,1,3.94-3.88"/><path class="cls-1" d="M208.5,180.7a2.59,2.59,0,1,0-2.48-2.59A2.51,2.51,0,0,0,208.5,180.7Zm0-6.47a3.88,3.88,0,1,1-3.94,3.88A3.81,3.81,0,0,1,208.5,174.23Z"/><polygon class="cls-1" points="222.22 174.35 222.22 175.64 220.26 175.64 220.26 181.88 218.84 181.88 218.84 175.64 216.89 175.64 216.89 174.35 222.22 174.35"/><polygon class="cls-1" points="222.22 174.35 222.22 175.64 220.26 175.64 220.26 181.88 218.84 181.88 218.84 175.64 216.89 175.64 216.89 174.35 222.22 174.35"/><polygon class="cls-1" points="233.31 178.49 229.56 178.49 229.56 181.88 228.12 181.88 228.12 174.35 229.56 174.35 229.56 177.2 233.31 177.2 233.31 174.35 234.75 174.35 234.75 181.88 233.31 181.88 233.31 178.49"/><polygon class="cls-1" points="233.31 178.49 229.56 178.49 229.56 181.88 228.12 181.88 228.12 174.35 229.56 174.35 229.56 177.2 233.31 177.2 233.31 174.35 234.75 174.35 234.75 181.88 233.31 181.88 233.31 178.49"/><rect class="cls-1" x="240.56" y="174.35" width="1.13" height="7.54"/><rect class="cls-1" x="240.56" y="174.35" width="1.13" height="7.54"/><polygon class="cls-1" points="248.22 174.35 249.24 174.35 253.41 179.26 253.41 174.35 254.85 174.35 254.85 181.88 253.83 181.88 249.66 176.97 249.66 181.88 248.22 181.88 248.22 174.35"/><polygon class="cls-1" points="248.22 174.35 249.24 174.35 253.41 179.26 253.41 174.35 254.85 174.35 254.85 181.88 253.83 181.88 249.66 176.97 249.66 181.88 248.22 181.88 248.22 174.35"/><path class="cls-1" d="M261.55,178.12a2.53,2.53,0,0,0,2.57,2.59,2.63,2.63,0,0,0,1.68-.58v-1.63h-1.93v-1.3h3.38v3.36a4,4,0,0,1-3.16,1.45,3.88,3.88,0,1,1,0-7.77,3.9,3.9,0,0,1,2.75,1.08l-.93,1a2.57,2.57,0,0,0-1.83-.78,2.51,2.51,0,0,0-2.5,2.59"/><path class="cls-1" d="M261.55,178.12a2.53,2.53,0,0,0,2.57,2.59,2.63,2.63,0,0,0,1.68-.58v-1.63h-1.93v-1.3h3.38v3.36a4,4,0,0,1-3.16,1.45,3.88,3.88,0,1,1,0-7.77,3.9,3.9,0,0,1,2.75,1.08l-.93,1a2.57,2.57,0,0,0-1.83-.78A2.51,2.51,0,0,0,261.55,178.12Z"/><rect class="cls-2" x="197.77" y="105.99" width="29.85" height="43.25"/><rect class="cls-3" x="197.77" y="80.82" width="29.85" height="25.17"/><rect class="cls-4" x="173.52" y="80.82" width="24.25" height="25.17"/><rect class="cls-4" x="227.63" y="80.82" width="24.25" height="25.17"/><rect class="cls-4" x="138.6" y="80.83" width="29.85" height="36.13"/><path class="cls-3" d="M138.6,150.26A33.5,33.5,0,0,0,168.45,117H138.6Z"/><path class="cls-2" d="M131.32,117V80.83H101.47V117A33.49,33.49,0,0,0,135,150.46a33.91,33.91,0,0,0,3.64-.2V117Z"/><path class="cls-4" d="M49.59,117.88l-17.9,17.9a35.81,35.81,0,0,0,46.09,10.29Z"/><path class="cls-3" d="M77.78,146.07a35.81,35.81,0,0,0,3.94-60.33L49.59,117.88Z"/><path class="cls-2" d="M60.59,78.84a35.8,35.8,0,0,0-28.91,56.94l17.9-17.9L81.72,85.74a35.63,35.63,0,0,0-21.13-6.9"/><rect class="cls-4" x="36.8" y="49.14" width="29.85" height="19.28"/><rect class="cls-4" x="36.8" y="0.01" width="29.85" height="23.3"/><rect class="cls-3" x="36.8" y="23.31" width="29.85" height="25.83"/><polygon class="cls-2" points="29.85 23.31 29.85 0.01 0 0.01 0 68.42 29.85 68.42 29.85 49.14 36.8 49.14 36.8 23.31 29.85 23.31"/><polygon class="cls-2" points="110.17 48.68 95.25 30.24 95.25 68.42 125.1 68.42 125.1 30.24 110.17 48.68"/><polygon class="cls-4" points="149.56 0.01 125.1 0.01 125.1 30.24 149.56 0.01"/><polygon class="cls-4" points="70.79 0.01 95.25 30.24 95.25 0.01 70.79 0.01"/><polygon class="cls-3" points="125.1 30.24 125.1 0.01 95.25 0.01 95.25 30.24 110.17 48.68 125.1 30.24"/><path class="cls-2" d="M187.88.05V0H153.69V34.24A34.18,34.18,0,0,1,187.88.05"/><path class="cls-2" d="M153.69,34.24V68.42h34.18a34.18,34.18,0,0,1-34.18-34.18"/><path class="cls-4" d="M187.88.05V68.42a34.18,34.18,0,0,0,0-68.37"/><path class="cls-3" d="M153.69,34.24a34.18,34.18,0,0,0,34.18,34.18V.05a34.18,34.18,0,0,0-34.18,34.18"/><polygon class="cls-4" points="247.44 0.01 226.2 0.01 247.44 21.25 247.44 21.25 276.66 21.25 276.66 0.01 247.44 0.01"/><polygon class="cls-4" points="247.44 47.18 247.43 47.19 226.2 68.42 247.43 68.42 276.66 68.42 276.66 47.18 247.44 47.18"/><polygon class="cls-2" points="225 0.01 225.01 0.01 225 0 225 0.01"/><polygon class="cls-2" points="247.44 47.18 247.44 47.18 260.4 34.21 247.44 21.25 247.44 21.25 247.44 47.18"/><polygon class="cls-2" points="247.44 21.25 247.44 21.25 247.44 21.24 247.44 21.25"/><polygon class="cls-2" points="247.44 47.18 247.44 47.19 247.44 47.18 247.44 47.18"/><polygon class="cls-3" points="226.2 0.01 226.19 0.01 226.19 21.25 226.19 47.18 226.19 68.42 226.2 68.42 247.44 47.18 247.44 47.18 247.44 21.25 247.44 21.25 226.2 0.01"/></g></g></svg>