<svg xmlns="http://www.w3.org/2000/svg" viewBox="0 0 73.96 76.86"><defs><style>.cls-1{fill:#e11383;}.cls-2{fill:#db2e7b;stroke:#fff;stroke-miterlimit:10;stroke-width:2px;}</style></defs><title>location-icon</title><g id="Layer_2" data-name="Layer 2"><g id="Layer_1-2" data-name="Layer 1"><path class="cls-1" d="M48.09,9.42A11.23,11.23,0,0,0,27.54,5.2a10.77,10.77,0,0,0-.74,10.71c.61,1.36,1.43,2.62,2.18,3.91L36.55,33c.14.24.26.48.41.76.11-.09.14-.11.16-.14q2.36-4.14,4.72-8.29c1.5-2.63,3-5.29,4.54-7.87A11.43,11.43,0,0,0,48.09,9.42Zm-5.48,2.13A5.63,5.63,0,0,1,31.38,11a5.63,5.63,0,1,1,11.24.55Z"/><path class="cls-2" d="M71.2,63.62q-2.37-4.72-4.72-9.44L60.41,42l-.87-1.71L57.81,42c-2.14,2.14-4.29,4.27-6.41,6.43a3.92,3.92,0,0,0-.16-.39c-.26.32-.47.54-.65.79a.74.74,0,0,1-.2.2,1.27,1.27,0,0,1-.29-.15q-4.57-3.07-9.15-6.11c-1.12-.75-2.26-1.48-3.37-2.24a.56.56,0,0,0-.58-.1.56.56,0,0,0-.58.1c-1.11.76-2.25,1.5-3.37,2.24q-4.58,3.05-9.15,6.11a1.27,1.27,0,0,1-.29.15.74.74,0,0,1-.2-.2c-.18-.25-.38-.47-.65-.79a3.92,3.92,0,0,0-.16.39c-2.12-2.16-4.27-4.29-6.41-6.43l-1.74-1.71L13.55,42,7.48,54.18Q5.12,58.9,2.76,63.62C2.19,64.76,1.59,65.88,1,67v.11l12.09,6,3.05,1.53a27.64,27.64,0,0,0,3.55,1.16c2.65-1.3,5.28-2.62,7.91-3.95,3.08-1.54,6.15-3.09,9.23-4.62l.14,0,.14,0c3.08,1.53,6.16,3.08,9.23,4.62,2.63,1.32,5.27,2.65,7.91,3.95a27.64,27.64,0,0,0,3.55-1.16l3.05-1.53,12.09-6V67C72.37,65.88,71.77,64.76,71.2,63.62ZM39.38,47.86c0-.14,0-.28,0-.44l3.4,2.25c1.68,1.12,3.36,2.22,5,3.37a1.5,1.5,0,0,1,.57.84c1,5.05,2,10.11,3,15.16a1.35,1.35,0,0,1,0,.21q-5.78-2.89-11.57-5.78a.79.79,0,0,1-.5-.83C39.39,57.72,39.38,52.79,39.38,47.86Zm-4.8,0c0,4.93,0,9.86,0,14.79a.79.79,0,0,1-.5.83q-5.79,2.88-11.57,5.78a1.35,1.35,0,0,1,0-.22c1-5.06,2-10.11,3-15.16a1.5,1.5,0,0,1,.57-.84c1.66-1.15,3.34-2.26,5-3.37l3.4-2.25C34.57,47.58,34.58,47.72,34.58,47.86ZM7,65.13l8.61-17.24c.17.14.3.23.42.34,1.47,1.47,2.93,2.94,4.41,4.4a.81.81,0,0,1,.26.85Q19,61.7,17.37,69.93c0,.09,0,.18-.08.34Zm49.68,5.15c0-.16-.07-.25-.08-.34q-1.65-8.23-3.32-16.45a.81.81,0,0,1,.26-.85c1.48-1.46,2.94-2.93,4.41-4.4.11-.11.25-.21.42-.34L67,65.13Z"/></g></g></svg>