<svg xmlns="http://www.w3.org/2000/svg" viewBox="0 0 37.54 25.86"><defs><style>.cls-1{fill:#fff;}</style></defs><title>map-pin-icon-01</title><g id="Layer_2" data-name="Layer 2"><g id="Layer_1-2" data-name="Layer 1"><path class="cls-1" d="M36.93,24.65h-.79L31.88,1.56A1.91,1.91,0,0,0,30,0H7.53A1.91,1.91,0,0,0,5.65,1.56L1.4,24.65H.61a.61.61,0,0,0,0,1.22H3.2a.61.61,0,0,0,0-1.22H2.64L6.85,1.78a.69.69,0,0,1,.68-.56h.26s0,0,0,0a1.91,1.91,0,0,0,1.3,1.81V18.32a1.26,1.26,0,0,0-.65,1.1v1.3A1.26,1.26,0,0,0,9.69,22h6.49a1.26,1.26,0,0,0,1.26-1.26v-1.3a1.26,1.26,0,0,0-.65-1.1V3.06a1.91,1.91,0,0,0,1.3-1.81s0,0,0,0h1.38s0,0,0,0a1.91,1.91,0,0,0,1.3,1.81V18.32a1.26,1.26,0,0,0-.65,1.1v1.3A1.26,1.26,0,0,0,21.36,22h6.49a1.26,1.26,0,0,0,1.26-1.26v-1.3a1.26,1.26,0,0,0-.65-1.1V3.06a1.91,1.91,0,0,0,1.3-1.81s0,0,0,0H30a.69.69,0,0,1,.68.56L34.9,24.65h-.57a.61.61,0,0,0,0,1.22h2.59a.61.61,0,0,0,0-1.22ZM27.24,3.06V13.62H22V3.06a1.91,1.91,0,0,0,1.3-1.81s0,0,0,0h2.68s0,0,0,0A1.91,1.91,0,0,0,27.24,3.06ZM22,18.16V16.78h5.27v1.38Zm0-3.32h5.27v.73H22ZM15.57,3.06V13.62H10.3V3.06a1.91,1.91,0,0,0,1.3-1.81s0,0,0,0h2.68s0,0,0,0A1.91,1.91,0,0,0,15.57,3.06ZM10.3,18.16V16.78h5.27v1.38Zm0-3.32h5.27v.73H10.3ZM9,1.22h1.38s0,0,0,0A.69.69,0,0,1,9,1.26S9,1.23,9,1.22Zm7.22,19.5a0,0,0,0,1,0,0H9.69a0,0,0,0,1,0,0v-1.3a0,0,0,0,1,0,0h6.49a0,0,0,0,1,0,0Zm.65-19.46a.69.69,0,0,1-1.38,0s0,0,0,0h1.38S16.86,1.24,16.86,1.26Zm3.81,0h1.38s0,0,0,0a.69.69,0,1,1-1.38,0S20.67,1.23,20.67,1.22Zm7.22,19.5a0,0,0,0,1,0,0H21.36a0,0,0,0,1,0,0v-1.3a0,0,0,0,1,0,0h6.49a0,0,0,0,1,0,0Zm.65-19.46a.69.69,0,0,1-1.38,0s0,0,0,0h1.38S28.54,1.24,28.54,1.26Z"/></g></g></svg>