<svg xmlns="http://www.w3.org/2000/svg" viewBox="0 0 122.91 82.75"><defs><style>.cls-1{fill:#67cfe3;}.cls-2{fill:#b31aab;}.cls-3{fill:#e11383;}.cls-4{fill:#231f20;}.cls-5{fill:none;stroke:#231f20;stroke-miterlimit:10;stroke-width:0.36px;}</style></defs><title>page-logo</title><g id="Layer_2" data-name="Layer 2"><g id="Layer_1-2" data-name="Layer 1"><rect class="cls-1" x="87.86" y="47.08" width="13.26" height="19.21"/><rect class="cls-2" x="87.86" y="35.91" width="13.26" height="11.18"/><rect class="cls-3" x="77.09" y="35.91" width="10.77" height="11.18"/><rect class="cls-3" x="101.12" y="35.91" width="10.77" height="11.18"/><rect class="cls-3" x="61.57" y="35.91" width="13.26" height="16.05"/><path class="cls-2" d="M61.57,66.75A14.88,14.88,0,0,0,74.84,52H61.57Z"/><path class="cls-1" d="M58.34,52V35.91H45.08V52A14.88,14.88,0,0,0,60,66.84a15.07,15.07,0,0,0,1.62-.09V52Z"/><path class="cls-3" d="M22,52.37l-8,8a15.91,15.91,0,0,0,20.48,4.57Z"/><path class="cls-2" d="M34.55,64.89a15.91,15.91,0,0,0,1.75-26.8L22,52.37Z"/><path class="cls-1" d="M26.92,35a15.91,15.91,0,0,0-12.84,25.3l8-8L36.31,38.09A15.83,15.83,0,0,0,26.92,35"/><rect class="cls-3" x="16.35" y="21.83" width="13.26" height="8.56"/><rect class="cls-3" x="16.35" width="13.26" height="10.35"/><rect class="cls-2" x="16.35" y="10.36" width="13.26" height="11.47"/><polygon class="cls-1" points="13.26 10.36 13.26 0 0 0 0 30.4 13.26 30.4 13.26 21.83 16.35 21.83 16.35 10.36 13.26 10.36"/><polygon class="cls-1" points="48.95 21.63 42.31 13.43 42.31 30.4 55.58 30.4 55.58 13.43 48.95 21.63"/><polygon class="cls-3" points="66.44 0 55.58 0 55.58 13.43 66.44 0"/><polygon class="cls-3" points="31.45 0 42.31 13.43 42.31 0 31.45 0"/><polygon class="cls-2" points="55.58 13.43 55.58 0 42.31 0 42.31 13.43 48.95 21.63 55.58 13.43"/><path class="cls-1" d="M83.46,0V0H68.28V15.21A15.19,15.19,0,0,1,83.46,0"/><path class="cls-1" d="M68.28,15.21V30.4H83.46A15.19,15.19,0,0,1,68.28,15.21"/><path class="cls-3" d="M83.46,0V30.4A15.19,15.19,0,0,0,83.46,0"/><path class="cls-2" d="M68.28,15.21A15.19,15.19,0,0,0,83.46,30.4V0A15.19,15.19,0,0,0,68.28,15.21"/><polygon class="cls-3" points="109.92 0 100.49 0 109.92 9.44 109.92 9.44 122.91 9.44 122.91 0 109.92 0"/><polygon class="cls-3" points="109.92 20.96 109.92 20.96 100.49 30.4 109.92 30.4 122.91 30.4 122.91 20.96 109.92 20.96"/><polygon class="cls-1" points="99.95 0 99.96 0 99.95 0 99.95 0"/><polygon class="cls-1" points="109.92 20.96 109.92 20.96 115.68 15.2 109.92 9.44 109.92 9.44 109.92 20.96"/><polygon class="cls-1" points="109.92 9.44 109.92 9.44 109.92 9.44 109.92 9.44"/><polygon class="cls-1" points="109.92 20.96 109.92 20.96 109.92 20.96 109.92 20.96"/><polygon class="cls-2" points="100.49 0 100.49 0 100.49 9.44 100.49 20.96 100.49 30.4 100.49 30.4 109.92 20.96 109.92 20.96 109.92 9.44 109.92 9.44 100.49 0"/><path class="cls-4" d="M9,80.09a1,1,0,0,0-.86-.38H7.67v2.23h.48A1,1,0,0,0,9,81.56a1.23,1.23,0,0,0,0-1.47m-.93-1a1.84,1.84,0,0,1,1.16.32,1.75,1.75,0,0,1,0,2.75,1.83,1.83,0,0,1-1.16.32H7V79.13Z"/><path class="cls-5" d="M9,80.09a1,1,0,0,0-.86-.38H7.67v2.23h.48A1,1,0,0,0,9,81.56a1.23,1.23,0,0,0,0-1.47Zm-.93-1a1.84,1.84,0,0,1,1.16.32,1.75,1.75,0,0,1,0,2.75,1.83,1.83,0,0,1-1.16.32H7V79.13Z"/><path class="cls-4" d="M14,82a1.17,1.17,0,1,0-1.12-1.17A1.13,1.13,0,0,0,14,82m0-2.91a1.75,1.75,0,1,1-1.77,1.75A1.72,1.72,0,0,1,14,79.08"/><path class="cls-5" d="M14,82a1.17,1.17,0,1,0-1.12-1.17A1.13,1.13,0,0,0,14,82Zm0-2.91a1.75,1.75,0,1,1-1.77,1.75A1.72,1.72,0,0,1,14,79.08Z"/><polygon class="cls-4" points="22.37 79.71 22.37 80.41 23.38 80.41 23.38 81 22.37 81 22.37 81.94 23.76 81.94 23.76 82.52 21.74 82.52 21.74 79.13 23.71 79.13 23.71 79.71 22.37 79.71"/><polygon class="cls-5" points="22.37 79.71 22.37 80.41 23.38 80.41 23.38 81 22.37 81 22.37 81.94 23.76 81.94 23.76 82.52 21.74 82.52 21.74 79.13 23.71 79.13 23.71 79.71 22.37 79.71"/><polygon class="cls-4" points="26.25 79.13 26.9 79.13 27.8 81.45 28.71 79.13 29.36 79.13 28.03 82.52 27.58 82.52 26.25 79.13"/><polygon class="cls-5" points="26.25 79.13 26.9 79.13 27.8 81.45 28.71 79.13 29.36 79.13 28.03 82.52 27.58 82.52 26.25 79.13"/><polygon class="cls-4" points="32.62 79.71 32.62 80.41 33.62 80.41 33.62 81 32.62 81 32.62 81.94 34 81.94 34 82.52 31.98 82.52 31.98 79.13 33.95 79.13 33.95 79.71 32.62 79.71"/><polygon class="cls-5" points="32.62 79.71 32.62 80.41 33.62 80.41 33.62 81 32.62 81 32.62 81.94 34 81.94 34 82.52 31.98 82.52 31.98 79.13 33.95 79.13 33.95 79.71 32.62 79.71"/><path class="cls-4" d="M37.88,80.44a.38.38,0,0,0,.32-.1.41.41,0,0,0,0-.52.38.38,0,0,0-.32-.11h-.52v.73Zm-.52.58v1.5h-.63V79.13h1.19a1,1,0,0,1,.71.25,1,1,0,0,1,0,1.39.83.83,0,0,1-.33.2l1.22,1.56h-.78L37.59,81Z"/><path class="cls-5" d="M37.88,80.44a.38.38,0,0,0,.32-.1.41.41,0,0,0,0-.52.38.38,0,0,0-.32-.11h-.52v.73Zm-.52.58v1.5h-.63V79.13h1.19a1,1,0,0,1,.71.25,1,1,0,0,1,0,1.39.83.83,0,0,1-.33.2l1.22,1.56h-.78L37.59,81Z"/><polygon class="cls-4" points="43.15 80.99 43.15 82.52 42.52 82.52 42.52 80.99 41.42 79.13 42.13 79.13 42.84 80.32 43.54 79.13 44.25 79.13 43.15 80.99"/><polygon class="cls-5" points="43.15 80.99 43.15 82.52 42.52 82.52 42.52 80.99 41.42 79.13 42.13 79.13 42.84 80.32 43.54 79.13 44.25 79.13 43.15 80.99"/><polygon class="cls-4" points="48.85 79.13 48.85 79.71 47.97 79.71 47.97 82.52 47.33 82.52 47.33 79.71 46.45 79.71 46.45 79.13 48.85 79.13"/><polygon class="cls-5" points="48.85 79.13 48.85 79.71 47.97 79.71 47.97 82.52 47.33 82.52 47.33 79.71 46.45 79.71 46.45 79.13 48.85 79.13"/><polygon class="cls-4" points="53.84 81 52.15 81 52.15 82.52 51.5 82.52 51.5 79.13 52.15 79.13 52.15 80.42 53.84 80.42 53.84 79.13 54.49 79.13 54.49 82.52 53.84 82.52 53.84 81"/><polygon class="cls-5" points="53.84 81 52.15 81 52.15 82.52 51.5 82.52 51.5 79.13 52.15 79.13 52.15 80.42 53.84 80.42 53.84 79.13 54.49 79.13 54.49 82.52 53.84 82.52 53.84 81"/><rect class="cls-4" x="57.11" y="79.13" width="0.51" height="3.39"/><rect class="cls-5" x="57.11" y="79.13" width="0.51" height="3.39"/><polygon class="cls-4" points="60.24 79.13 60.69 79.13 62.57 81.34 62.57 79.13 63.22 79.13 63.22 82.52 62.76 82.52 60.89 80.31 60.89 82.52 60.24 82.52 60.24 79.13"/><polygon class="cls-5" points="60.24 79.13 60.69 79.13 62.57 81.34 62.57 79.13 63.22 79.13 63.22 82.52 62.76 82.52 60.89 80.31 60.89 82.52 60.24 82.52 60.24 79.13"/><path class="cls-4" d="M66.56,80.83A1.14,1.14,0,0,0,67.71,82a1.18,1.18,0,0,0,.75-.26V81H67.6v-.58h1.52v1.51a1.78,1.78,0,0,1-1.42.65,1.75,1.75,0,1,1,0-3.5,1.75,1.75,0,0,1,1.24.49l-.42.45a1.16,1.16,0,0,0-.82-.35,1.13,1.13,0,0,0-1.13,1.17"/><path class="cls-5" d="M66.56,80.83A1.14,1.14,0,0,0,67.71,82a1.18,1.18,0,0,0,.75-.26V81H67.6v-.58h1.52v1.51a1.78,1.78,0,0,1-1.42.65,1.75,1.75,0,1,1,0-3.5,1.75,1.75,0,0,1,1.24.49l-.42.45a1.16,1.16,0,0,0-.82-.35A1.13,1.13,0,0,0,66.56,80.83Z"/><path class="cls-4" d="M76,79.66a.19.19,0,0,0-.18.21.54.54,0,0,0,.16.32.47.47,0,0,0,.2-.32.19.19,0,0,0-.18-.21M76.15,82a.9.9,0,0,0,.49-.13l-.78-.94a.61.61,0,0,0-.36.54.57.57,0,0,0,.65.53m1.37-1.66a2.86,2.86,0,0,1,.1.68,1.76,1.76,0,0,1-.2.87l.54.64H77.2l-.17-.2a1.59,1.59,0,0,1-.91.25,1.16,1.16,0,0,1-1.22-1.11,1.21,1.21,0,0,1,.58-1,1.1,1.1,0,0,1-.26-.65.79.79,0,0,1,1.57.06,1,1,0,0,1-.43.75l.63.75A1.45,1.45,0,0,0,77,81a1.94,1.94,0,0,0-.08-.53Z"/><path class="cls-5" d="M76,79.66a.19.19,0,0,0-.18.21.54.54,0,0,0,.16.32.47.47,0,0,0,.2-.32A.19.19,0,0,0,76,79.66ZM76.15,82a.9.9,0,0,0,.49-.13l-.78-.94a.61.61,0,0,0-.36.54A.57.57,0,0,0,76.15,82Zm1.37-1.66a2.86,2.86,0,0,1,.1.68,1.76,1.76,0,0,1-.2.87l.54.64H77.2l-.17-.2a1.59,1.59,0,0,1-.91.25,1.16,1.16,0,0,1-1.22-1.11,1.21,1.21,0,0,1,.58-1,1.1,1.1,0,0,1-.26-.65.79.79,0,0,1,1.57.06,1,1,0,0,1-.43.75l.63.75A1.45,1.45,0,0,0,77,81a1.94,1.94,0,0,0-.08-.53Z"/><polygon class="cls-4" points="83.7 79.13 84.16 79.13 86.04 81.34 86.04 79.13 86.69 79.13 86.69 82.52 86.23 82.52 84.35 80.31 84.35 82.52 83.7 82.52 83.7 79.13"/><polygon class="cls-5" points="83.7 79.13 84.16 79.13 86.04 81.34 86.04 79.13 86.69 79.13 86.69 82.52 86.23 82.52 84.35 80.31 84.35 82.52 83.7 82.52 83.7 79.13"/><path class="cls-4" d="M90.5,82a1.17,1.17,0,1,0-1.12-1.17A1.13,1.13,0,0,0,90.5,82m0-2.91a1.75,1.75,0,1,1-1.77,1.75,1.72,1.72,0,0,1,1.77-1.75"/><path class="cls-5" d="M90.5,82a1.17,1.17,0,1,0-1.12-1.17A1.13,1.13,0,0,0,90.5,82Zm0-2.91a1.75,1.75,0,1,1-1.77,1.75A1.72,1.72,0,0,1,90.5,79.08Z"/><polygon class="cls-4" points="96.68 79.13 96.68 79.71 95.8 79.71 95.8 82.52 95.16 82.52 95.16 79.71 94.28 79.71 94.28 79.13 96.68 79.13"/><polygon class="cls-5" points="96.68 79.13 96.68 79.71 95.8 79.71 95.8 82.52 95.16 82.52 95.16 79.71 94.28 79.71 94.28 79.13 96.68 79.13"/><polygon class="cls-4" points="101.67 81 99.99 81 99.99 82.52 99.34 82.52 99.34 79.13 99.99 79.13 99.99 80.42 101.67 80.42 101.67 79.13 102.33 79.13 102.33 82.52 101.67 82.52 101.67 81"/><polygon class="cls-5" points="101.67 81 99.99 81 99.99 82.52 99.34 82.52 99.34 79.13 99.99 79.13 99.99 80.42 101.67 80.42 101.67 79.13 102.33 79.13 102.33 82.52 101.67 82.52 101.67 81"/><rect class="cls-4" x="104.94" y="79.13" width="0.51" height="3.39"/><rect class="cls-5" x="104.94" y="79.13" width="0.51" height="3.39"/><polygon class="cls-4" points="108.39 79.13 108.85 79.13 110.73 81.34 110.73 79.13 111.38 79.13 111.38 82.52 110.92 82.52 109.04 80.31 109.04 82.52 108.39 82.52 108.39 79.13"/><polygon class="cls-5" points="108.39 79.13 108.85 79.13 110.73 81.34 110.73 79.13 111.38 79.13 111.38 82.52 110.92 82.52 109.04 80.31 109.04 82.52 108.39 82.52 108.39 79.13"/><path class="cls-4" d="M114.39,80.83A1.14,1.14,0,0,0,115.55,82a1.19,1.19,0,0,0,.75-.26V81h-.87v-.58H117v1.51a1.78,1.78,0,0,1-1.42.65,1.75,1.75,0,1,1,0-3.5,1.75,1.75,0,0,1,1.24.49l-.42.45a1.16,1.16,0,0,0-.82-.35,1.13,1.13,0,0,0-1.13,1.17"/><path class="cls-5" d="M114.39,80.83A1.14,1.14,0,0,0,115.55,82a1.19,1.19,0,0,0,.75-.26V81h-.87v-.58H117v1.51a1.78,1.78,0,0,1-1.42.65,1.75,1.75,0,1,1,0-3.5,1.75,1.75,0,0,1,1.24.49l-.42.45a1.16,1.16,0,0,0-.82-.35A1.13,1.13,0,0,0,114.39,80.83Z"/></g></g></svg>