<svg xmlns="http://www.w3.org/2000/svg" viewBox="0 0 26.32 24.49"><defs><style>.cls-1{fill:#fff;}</style></defs><title>pet</title><g id="Layer_2" data-name="Layer 2"><g id="Layer_1-2" data-name="Layer 1"><g id="Layer_2-2" data-name="Layer 2"><g id="Layer_1-2-2" data-name="Layer 1-2"><path class="cls-1" d="M6.81,6.82C6.37,4.61,4.84,2.74,3,2.74S0,5.15,0,7.41a4,4,0,0,0,3.79,4C5.62,11.39,7.3,9.25,6.81,6.82Z"/><path class="cls-1" d="M10.21,8.7c1.79.49,3.94-1.12,4.13-3.62.17-2.25-.8-4.46-2.56-5S8.23,1.67,7.62,3.84A4,4,0,0,0,10.21,8.7Z"/><path class="cls-1" d="M21.37,9.6C22.44,7.6,22.46,5.2,21,4S17.18,4,15.74,5.72a4,4,0,0,0,.39,5.49C17.54,12.37,20.19,11.79,21.37,9.6Z"/><path class="cls-1" d="M26.07,12.57c-.73-1.49-3.17-1.5-5-.6a3.67,3.67,0,0,0-1.74,4.69c.73,1.49,3.15,2,4.94.64C25.88,16.08,26.8,14.08,26.07,12.57Z"/><path class="cls-1" d="M11.67,10.08c-4.37-.27-9.82,3-9.82,7.1s4.67,7.23,9,7.3c6.76.1,8.24-3.45,7.49-7.44S14.79,10.32,11.67,10.08Z"/></g></g></g></g></svg>