<svg xmlns="http://www.w3.org/2000/svg" viewBox="0 0 60 60"><defs><style>.cls-1{fill:#fff;}</style></defs><title>picnic</title><g id="Layer_2" data-name="Layer 2"><g id="Layer_1-2" data-name="Layer 1"><g id="Layer_2-2" data-name="Layer 2"><g id="Layer_1-2-2" data-name="Layer 1-2"><path class="cls-1" d="M58,46H50a2,2,0,0,0-2,2v2a2,2,0,0,0,2,2h1v6H46.57l-8.4-14H51a2,2,0,0,0,2-2V40a2,2,0,0,0-2-2H33V28H56a1,1,0,0,0,1-1A27,27,0,0,0,3,27a1,1,0,0,0,1,1H27V38H9a2,2,0,0,0-2,2v2a2,2,0,0,0,2,2H21.83l-8.4,14H9V52h1a2,2,0,0,0,2-2V48a2,2,0,0,0-2-2H2a2,2,0,0,0-2,2v2a2,2,0,0,0,2,2H3v6H1a1,1,0,0,0,0,2H59a1,1,0,0,0,0-2H57V52h1a2,2,0,0,0,2-2V48A2,2,0,0,0,58,46ZM31,26V2.1C36.9,3.17,41.74,13.59,42,26Zm24,0H44c-.2-10.29-3.23-18.94-7.68-23.19A25,25,0,0,1,55,26ZM23.68,2.81C19.23,7.06,16.2,15.71,16,26H5A25,25,0,0,1,23.68,2.81ZM29,2.1V26H18C18.26,13.59,23.1,3.17,29,2.1ZM29,28h2V38H29ZM9,40H51v2H9ZM23.17,54H36.83l2.4,4H20.77Zm1.2-2,1.2-2h8.87l1.2,2Zm2.4-4,2.4-4h1.67l2.4,4ZM2,48h8v2H2ZM5,58V52H7v6Zm10.77,0,8.4-14h2.67l-8.4,14Zm25.8,0-8.4-14h2.67l8.4,14ZM55,58H53V52h2Zm1-8H50V48h8v2Z"/></g></g></g></g></svg>