<svg xmlns="http://www.w3.org/2000/svg" viewBox="0 0 97.92 99.75"><defs><style>.cls-1{fill:#e11383;}.cls-2{fill:#81c5d0;}</style></defs><title>picnic-artwork-01</title><g id="Layer_2" data-name="Layer 2"><g id="Layer_1-2" data-name="Layer 1"><circle class="cls-1" cx="48.39" cy="48.39" r="48.38" transform="translate(-18.2 32.61) rotate(-31.67)"/><path class="cls-2" d="M91.72,28.21a11.57,11.57,0,0,1,1.64,3.33c5.61,11.41,5.74,23.14,2,35.08-.5,1.59-1.15,3.14-1.73,4.71a6.08,6.08,0,0,0-1,2.12l-.52,1-4.8,7.2L86.16,83l-.27.38a.22.22,0,0,0-.2.2l-3.51,3.54L80.87,88.2a9.61,9.61,0,0,0-2,1.72l-2,1.36-2.4,1.61-1.55.91A24.67,24.67,0,0,0,68.29,96l-.58.26-4.65,1.59-.52.22A21.08,21.08,0,0,0,58,99a.26.26,0,0,0-.3.07h-.46l-.72.19a35.08,35.08,0,0,0-5.6.44,50.57,50.57,0,0,1-21.14-4.31A46.71,46.71,0,0,1,8.45,76.62c-.62-1.22-.36-1.94,1-2.63,3.3-1.72,6.49-3.65,9.72-5.5Q53.92,48.61,88.7,28.73C89.67,28.18,90.59,27.65,91.72,28.21Z"/></g></g></svg>