<svg xmlns="http://www.w3.org/2000/svg" viewBox="0 0 99.18 99.26"><defs><style>.cls-1{fill:#db2e7b;}.cls-2{fill:#81c5d0;}</style></defs><title>promenade-artwork-01</title><g id="Layer_2" data-name="Layer 2"><g id="Layer_1-2" data-name="Layer 1"><circle class="cls-1" cx="50.54" cy="48.64" r="48.63" transform="translate(-18.66 60.07) rotate(-53.28)"/><path class="cls-2" d="M85.82,81.5a11.63,11.63,0,0,1-2.51,2.77c-8.58,9.47-19.5,13.93-32,14.86-1.67.12-3.36.09-5,.13a6.11,6.11,0,0,0-2.36-.16L42.72,99l-8.51-1.82-1.66-.58-.46-.11a.22.22,0,0,0-.26-.11l-4.61-2-1.48-.84a9.66,9.66,0,0,0-2.35-1.25l-2-1.41L19,89.26l-1.42-1.11A24.8,24.8,0,0,0,13.8,84.7l-.45-.45-3.21-3.76-.4-.4a21.19,21.19,0,0,0-2.59-3.89A.26.26,0,0,0,7,75.94l-.18-.42-.45-.6a35.26,35.26,0,0,0-2.48-5.07A50.83,50.83,0,0,1,.06,48.5,47,47,0,0,1,9.75,21.6c.91-1,1.68-1.05,2.82-.07,2.83,2.44,5.81,4.71,8.73,7q31.45,25.15,62.92,50.3C85.09,79.57,85.92,80.24,85.82,81.5Z"/></g></g></svg>