<?xml version="1.0" encoding="utf-8"?>
<!-- Generator: Adobe Illustrator 21.0.2, SVG Export Plug-In . SVG Version: 6.00 Build 0)  -->
<svg version="1.1" id="Layer_1" xmlns="http://www.w3.org/2000/svg" xmlns:xlink="http://www.w3.org/1999/xlink" x="0px" y="0px"
	 viewBox="0 0 168.4 39.1" style="enable-background:new 0 0 168.4 39.1;" xml:space="preserve">
<style type="text/css">
	.st0{fill:#FFFFFF;stroke:none;stroke-miterlimit:0;}
	.st1{fill:#FFFFFF;stroke:none;stroke-width:0;stroke-miterlimit:0;}
</style>
<title>logo</title>
<g id="Layer_2">
	<g id="Layer_1-2">
		<path class="st0" d="M33.3,13.3c-2.5,0-4.5-2-4.5-4.5c0-2.5,2-4.5,4.5-4.5c2.5,0,4.5,2,4.5,4.5S35.7,13.3,33.3,13.3L33.3,13.3
			 M33.3,1.4c-4.1,0-7.5,3.3-7.5,7.4c0,1.1,0.2,2.2,0.7,3.3c0,0.1,6.7,11.6,6.7,11.6l6.6-11.4c1.9-3.7,0.4-8.1-3.2-10
			C35.6,1.7,34.4,1.4,33.3,1.4"/>
		<path class="st0" d="M9.7,4.7C9.2,4.4,8.6,4.3,8,4.3c-1.2,0-2.4,0.5-3.3,1.4C3.9,6.6,3.4,7.7,3.4,9c0,1.2,0.5,2.4,1.4,3.3
			c0.9,0.9,2,1.4,3.3,1.4c1.2,0,2.3-0.5,3.2-1.2l2,2.1c-0.7,0.7-1.5,1.2-2.4,1.5C10,16.3,9,16.5,8.1,16.5c-2,0-3.9-0.8-5.3-2.2
			C1.3,12.9,0.5,11,0.5,9c0-2,0.8-3.9,2.2-5.3C4.1,2.2,6,1.4,8,1.5C9,1.5,9.9,1.6,10.8,2c0.9,0.3,1.7,0.9,2.4,1.5l-2,2.1
			C10.7,5.2,10.3,4.9,9.7,4.7"/>
		<path class="st0" d="M61.8,11.6l-0.9-1.9c-0.2-0.4-0.5-1.2-0.9-2.2c-0.1,0.2-0.3,0.6-0.5,1.1c-0.2,0.5-0.4,0.9-0.5,1.1l-0.9,1.9
			L61.8,11.6z M52.8,16.2l7.2-15l7.1,15H64l-1.1-2.4h-5.7L56,16.2L52.8,16.2z"/>
		<path class="st0" d="M83.5,12.1c0,0.7,0.4,1.1,1.3,1.4c0.4,0.1,0.8,0.2,1.2,0.2c0.4,0,0.8-0.1,1.2-0.2c0.9-0.3,1.3-0.7,1.3-1.4
			c0-0.4-0.3-0.8-0.9-1.1c-0.6-0.3-1.3-0.5-2-0.6c-1.2-0.2-2.4-0.7-3.5-1.3c-1.1-0.7-1.7-2-1.6-3.2c0-1,0.3-1.9,1-2.7
			C82.3,2.5,83.1,2,84,1.8c0.6-0.2,1.3-0.3,2-0.3c0.7,0,1.4,0.1,2.1,0.3C89,2,89.9,2.5,90.6,3.2c0.7,0.7,1,1.7,1,2.7h-2.9
			c0-0.7-0.4-1.1-1.3-1.4c-0.4-0.1-0.8-0.2-1.2-0.2l0,0c-0.4,0-0.8,0.1-1.2,0.2c-0.9,0.3-1.4,0.8-1.4,1.4c0,0.5,0.3,0.8,0.9,1.1
			c0.6,0.3,1.3,0.5,2,0.6c1.2,0.2,2.4,0.7,3.5,1.3c1.1,0.7,1.7,2,1.6,3.2c0,1-0.3,1.9-1,2.7c-0.7,0.7-1.5,1.2-2.4,1.5
			c-0.7,0.2-1.4,0.3-2.1,0.3l0,0c-0.7,0-1.4-0.1-2-0.3c-0.9-0.2-1.8-0.8-2.4-1.5c-0.7-0.7-1-1.7-1-2.7L83.5,12.1z"/>
		<polygon class="st0" points="112.6,4.7 112.6,16.2 109.8,16.2 109.8,4.7 105.8,4.7 105.8,1.8 116.5,1.8 116.5,4.7 		"/>
		<path class="st0" d="M141.5,7.1c0.4,0,0.7-0.1,1-0.4c0.3-0.3,0.4-0.6,0.4-1c0-0.4-0.1-0.7-0.4-1c-0.3-0.3-0.6-0.4-1-0.4h-0.1
			c-0.4,0-0.7,0.1-1,0.4c-0.3,0.3-0.4,0.6-0.4,1c0,0.4,0.1,0.7,0.4,1c0.3,0.3,0.6,0.4,1,0.4H141.5z M141.5,13.8
			c0.6,0,1.1-0.2,1.5-0.6c0.8-0.9,0.8-2.2,0-3.1c-0.8-0.8-2.2-0.9-3,0c0,0,0,0,0,0c-0.8,0.9-0.8,2.2,0,3.1
			C140.4,13.6,140.9,13.8,141.5,13.8 M141.6,1.4c1.1,0,2.2,0.4,2.9,1.2c0.8,0.8,1.2,1.8,1.2,2.9l0,0c0,1-0.4,1.9-1.2,2.5
			c1.2,0.8,1.9,2.1,1.9,3.6l0,0l0,0c0,1.3-0.5,2.5-1.4,3.4c-0.9,0.9-2.1,1.4-3.4,1.4h-0.1c-1.3,0-2.5-0.5-3.4-1.4
			c-0.9-0.9-1.4-2.1-1.4-3.4l0,0l0,0c0-1.4,0.7-2.8,1.9-3.6c-0.8-0.6-1.2-1.5-1.1-2.5l0,0c0-1.1,0.4-2.2,1.2-2.9
			c0.8-0.8,1.8-1.2,2.9-1.2H141.6z"/>
		<path class="st0" d="M160.8,6.3h-2.9c0-1.3,0.5-2.5,1.4-3.4c1.9-1.9,4.9-1.9,6.8,0c0,0,0,0,0,0c0.9,0.9,1.4,2.1,1.4,3.4
			c0,0.5-0.1,0.9-0.2,1.3c-0.1,0.4-0.3,0.8-0.5,1.1c-1.1,1.6-2.3,3.1-3.6,4.6h4.7v2.9h-10.8l3.7-4.4c1.3-1.4,2.5-3,3.6-4.6
			c0.1-0.1,0.2-0.3,0.2-0.5V6.6c0.1-0.2,0.1-0.4,0.1-0.6c0.2-1.1-0.5-2.1-1.5-2.4c-1.1-0.2-2.1,0.5-2.4,1.5c-0.1,0.3-0.1,0.6,0,0.8
			C160.8,6.1,160.8,6.2,160.8,6.3"/>
		<path class="st0" d="M19.2,36.8c0.3,0.3,0.6,0.5,1,0.5c0.3,0,0.6-0.2,0.6-0.5c0,0,0,0,0,0c0-0.6-0.8-0.6-1.4-1
			c-0.4-0.2-0.6-0.6-0.6-1c0-0.7,0.7-1.3,1.4-1.2c0,0,0,0,0,0c0.5,0,0.9,0.1,1.3,0.4l-0.4,0.6c-0.2-0.2-0.5-0.3-0.8-0.3
			c-0.3,0-0.7,0.1-0.7,0.5c0,0.7,2,0.5,2,1.9c0,0.8-0.7,1.3-1.5,1.3c0,0,0,0,0,0c-0.6,0-1.1-0.2-1.6-0.7L19.2,36.8z"/>
		<path class="st1" d="M19.2,36.8c0.3,0.3,0.6,0.5,1,0.5c0.3,0,0.6-0.2,0.6-0.5c0,0,0,0,0,0c0-0.6-0.8-0.6-1.4-1
			c-0.4-0.2-0.6-0.6-0.6-1c0-0.7,0.7-1.3,1.4-1.2c0,0,0,0,0,0c0.5,0,0.9,0.1,1.3,0.4l-0.4,0.6c-0.2-0.2-0.5-0.3-0.8-0.3
			c-0.3,0-0.7,0.1-0.7,0.5c0,0.7,2,0.5,2,1.9c0,0.8-0.7,1.3-1.5,1.3c0,0,0,0,0,0c-0.6,0-1.1-0.2-1.6-0.7L19.2,36.8z"/>
		<path class="st0" d="M25.9,36.2H27L26.4,35L25.9,36.2z M24.3,37.9l1.9-4.3h0.6l1.9,4.3h-0.9l-0.4-1h-1.8l-0.4,1L24.3,37.9z"/>
		<path class="st1" d="M25.9,36.2H27L26.4,35L25.9,36.2z M24.3,37.9l1.9-4.3h0.6l1.9,4.3h-0.9l-0.4-1h-1.8l-0.4,1L24.3,37.9z"/>
		<polygon class="st0" points="34.4,36 32.2,36 32.2,37.9 31.4,37.9 31.4,33.6 32.2,33.6 32.2,35.3 34.4,35.3 34.4,33.6 35.2,33.6
			35.2,37.9 34.4,37.9 		"/>
		<polygon class="st1" points="34.4,36 32.2,36 32.2,37.9 31.4,37.9 31.4,33.6 32.2,33.6 32.2,35.3 34.4,35.3 34.4,33.6 35.2,33.6
			35.2,37.9 34.4,37.9 		"/>
		<polygon class="st0" points="39.4,34.4 39.4,35.3 40.7,35.3 40.7,36 39.4,36 39.4,37.2 41.2,37.2 41.2,37.9 38.5,37.9 38.5,33.6
			41.1,33.6 41.1,34.4 		"/>
		<polygon class="st1" points="39.4,34.4 39.4,35.3 40.7,35.3 40.7,36 39.4,36 39.4,37.2 41.2,37.2 41.2,37.9 38.5,37.9 38.5,33.6
			41.1,33.6 41.1,34.4 		"/>
		<polygon class="st0" points="44.3,33.6 45.1,33.6 45.1,37.2 46.9,37.2 46.9,37.9 44.3,37.9 		"/>
		<polygon class="st1" points="44.3,33.6 45.1,33.6 45.1,37.2 46.9,37.2 46.9,37.9 44.3,37.9 		"/>
		<rect x="53.6" y="33" class="st0" width="0.7" height="5.6"/>
		<rect x="53.6" y="33" class="st1" width="0.7" height="5.6"/>
		<polygon class="st0" points="64.6,36 62.4,36 62.4,37.9 61.6,37.9 61.6,33.6 62.4,33.6 62.4,35.3 64.6,35.3 64.6,33.6 65.4,33.6
			65.4,37.9 64.6,37.9 		"/>
		<polygon class="st1" points="64.6,36 62.4,36 62.4,37.9 61.6,37.9 61.6,33.6 62.4,33.6 62.4,35.3 64.6,35.3 64.6,33.6 65.4,33.6
			65.4,37.9 64.6,37.9 		"/>
		<path class="st0" d="M70.1,37.3c0.8,0,1.5-0.6,1.6-1.4c0-0.8-0.6-1.5-1.4-1.6c-0.8,0-1.5,0.6-1.6,1.4c0,0,0,0,0,0.1
			C68.6,36.6,69.2,37.2,70.1,37.3C70,37.3,70,37.3,70.1,37.3 M70.1,33.6c1.2,0,2.2,1,2.2,2.3c0,1.2-1,2.2-2.3,2.2
			c-1.2,0-2.2-1-2.2-2.2c0-1.2,0.9-2.2,2.1-2.2C70,33.6,70,33.6,70.1,33.6"/>
		<path class="st1" d="M70.1,37.3c0.8,0,1.5-0.6,1.6-1.4c0-0.8-0.6-1.5-1.4-1.6c-0.8,0-1.5,0.6-1.6,1.4c0,0,0,0,0,0.1
			C68.6,36.6,69.2,37.2,70.1,37.3C70,37.3,70,37.3,70.1,37.3z M70.1,33.6c1.2,0,2.2,1,2.2,2.3c0,1.2-1,2.2-2.3,2.2
			c-1.2,0-2.2-1-2.2-2.2c0-1.2,0.9-2.2,2.1-2.2C70,33.6,70,33.6,70.1,33.6z"/>
		<polygon class="st0" points="77.6,33.6 77.6,34.4 76.5,34.4 76.5,37.9 75.7,37.9 75.7,34.4 74.5,34.4 74.5,33.6 		"/>
		<polygon class="st1" points="77.6,33.6 77.6,34.4 76.5,34.4 76.5,37.9 75.7,37.9 75.7,34.4 74.5,34.4 74.5,33.6 		"/>
		<polygon class="st0" points="81.4,34.4 81.4,35.3 82.8,35.3 82.8,36 81.4,36 81.4,37.2 83.3,37.2 83.3,37.9 80.6,37.9 80.6,33.6
			83.2,33.6 83.2,34.4 		"/>
		<polygon class="st1" points="81.4,34.4 81.4,35.3 82.8,35.3 82.8,36 81.4,36 81.4,37.2 83.3,37.2 83.3,37.9 80.6,37.9 80.6,33.6
			83.2,33.6 83.2,34.4 		"/>
		<polygon class="st0" points="86.3,33.6 87.2,33.6 87.2,37.2 89,37.2 89,37.9 86.3,37.9 		"/>
		<polygon class="st1" points="86.3,33.6 87.2,33.6 87.2,37.2 89,37.2 89,37.9 86.3,37.9 		"/>
		<path class="st0" d="M96.8,34.3c-0.1,0-0.2,0.1-0.2,0.3c0,0,0,0,0,0c0,0.2,0.1,0.3,0.2,0.4c0.1-0.1,0.2-0.2,0.3-0.4
			C97.1,34.4,97,34.3,96.8,34.3C96.8,34.3,96.8,34.3,96.8,34.3 M97,37.3c0.2,0,0.5-0.1,0.7-0.2l-1-1.2c-0.3,0.1-0.5,0.4-0.5,0.7
			C96.2,37,96.5,37.3,97,37.3 M98.9,35.2c0.1,0.3,0.1,0.6,0.1,0.9c0,0.4-0.1,0.8-0.3,1.1l0.7,0.8h-1l-0.2-0.3
			c-0.4,0.2-0.8,0.3-1.2,0.3c-0.8,0.1-1.5-0.4-1.6-1.2c-0.1-0.6,0.2-1.2,0.8-1.5c-0.2-0.2-0.3-0.5-0.3-0.8c0-0.6,0.5-1,1.1-1
			c0.6,0,1,0.5,1,1.1l0,0c0,0.4-0.2,0.8-0.6,1l0.8,1c0-0.2,0.1-0.3,0.1-0.5c0-0.2,0-0.5-0.1-0.7L98.9,35.2z"/>
		<path class="st1" d="M96.8,34.3c-0.1,0-0.2,0.1-0.2,0.3c0,0,0,0,0,0c0,0.2,0.1,0.3,0.2,0.4c0.1-0.1,0.2-0.2,0.3-0.4
			C97.1,34.4,97,34.3,96.8,34.3C96.8,34.3,96.8,34.3,96.8,34.3z M97,37.3c0.2,0,0.5-0.1,0.7-0.2l-1-1.2c-0.3,0.1-0.5,0.4-0.5,0.7
			C96.2,36.9,96.5,37.3,97,37.3L97,37.3z M98.9,35.2c0.1,0.3,0.1,0.6,0.1,0.9c0,0.4-0.1,0.8-0.3,1.1l0.7,0.8h-1l-0.2-0.3
			c-0.4,0.2-0.8,0.3-1.2,0.3c-0.8,0.1-1.5-0.4-1.6-1.2c-0.1-0.6,0.2-1.2,0.8-1.5c-0.2-0.2-0.3-0.5-0.3-0.8c0-0.6,0.5-1,1.1-1
			c0.6,0,1,0.5,1,1.1l0,0c0,0.4-0.2,0.8-0.6,1l0.8,1c0-0.2,0.1-0.3,0.1-0.5c0-0.2,0-0.5-0.1-0.7L98.9,35.2z"/>
		<path class="st0" d="M107.5,35.3c0.2,0,0.3,0,0.4-0.1c0.2-0.2,0.2-0.5,0-0.7c-0.1-0.1-0.3-0.2-0.4-0.1h-0.7v0.9H107.5z M106.8,36
			v1.9H106v-4.3h1.6c0.3,0,0.7,0.1,0.9,0.3c0.5,0.5,0.5,1.2,0.1,1.7c0,0,0,0-0.1,0.1c-0.1,0.1-0.3,0.2-0.4,0.2l1.6,2h-1l-1.5-1.9
			L106.8,36z"/>
		<path class="st1" d="M107.5,35.3c0.2,0,0.3,0,0.4-0.1c0.2-0.2,0.2-0.5,0-0.7c-0.1-0.1-0.3-0.2-0.4-0.1h-0.7v0.9H107.5z M106.8,36
			v1.9H106v-4.3h1.6c0.3,0,0.7,0.1,0.9,0.3c0.5,0.5,0.5,1.2,0.1,1.7c0,0,0,0-0.1,0.1c-0.1,0.1-0.3,0.2-0.4,0.2l1.6,2h-1l-1.5-1.9
			L106.8,36z"/>
		<polygon class="st0" points="113.3,34.4 113.3,35.3 114.6,35.3 114.6,36 113.3,36 113.3,37.2 115.1,37.2 115.1,37.9 112.5,37.9
			112.5,33.6 115.1,33.6 115.1,34.4 		"/>
		<polygon class="st1" points="113.3,34.4 113.3,35.3 114.6,35.3 114.6,36 113.3,36 113.3,37.2 115.1,37.2 115.1,37.9 112.5,37.9
			112.5,33.6 115.1,33.6 115.1,34.4 		"/>
		<path class="st0" d="M118.3,36.8c0.3,0.3,0.6,0.5,1,0.5c0.3,0,0.6-0.2,0.6-0.5c0,0,0,0,0,0c0-0.6-0.8-0.6-1.4-1
			c-0.4-0.2-0.6-0.6-0.6-1c0-0.7,0.7-1.3,1.4-1.2c0,0,0,0,0,0c0.5,0,0.9,0.1,1.3,0.4l-0.4,0.6c-0.2-0.2-0.5-0.3-0.8-0.3
			c-0.3,0-0.7,0.1-0.7,0.5c0,0.7,2,0.5,2,1.9c0,0.8-0.7,1.3-1.5,1.3c0,0,0,0,0,0c-0.6,0-1.1-0.2-1.6-0.7L118.3,36.8z"/>
		<path class="st1" d="M118.3,36.8c0.3,0.3,0.6,0.5,1,0.5c0.3,0,0.6-0.2,0.6-0.5c0,0,0,0,0,0c0-0.6-0.8-0.6-1.4-1
			c-0.4-0.2-0.6-0.6-0.6-1c0-0.7,0.7-1.3,1.4-1.2c0,0,0,0,0,0c0.5,0,0.9,0.1,1.3,0.4l-0.4,0.6c-0.2-0.2-0.5-0.3-0.8-0.3
			c-0.3,0-0.7,0.1-0.7,0.5c0,0.7,2,0.5,2,1.9c0,0.8-0.7,1.3-1.5,1.3c0,0,0,0,0,0c-0.6,0-1.1-0.2-1.6-0.7L118.3,36.8z"/>
		<rect x="123.9" y="33.6" class="st0" width="0.8" height="4.3"/>
		<rect x="123.9" y="33.6" class="st1" width="0.8" height="4.3"/>
		<path class="st0" d="M130.5,34.8c-0.3-0.3-0.7-0.5-1.1-0.5h-0.6v2.8h0.6c0.4,0,0.8-0.1,1.1-0.5C130.9,36.1,130.9,35.4,130.5,34.8
			 M129.3,33.6c0.5,0,1.1,0.1,1.5,0.4c1,0.8,1.1,2.2,0.4,3.1c-0.1,0.1-0.2,0.3-0.4,0.4c-0.4,0.3-1,0.4-1.5,0.4h-1.4v-4.3L129.3,33.6
			z"/>
		<path class="st1" d="M130.5,34.8c-0.3-0.3-0.7-0.5-1.1-0.5h-0.6v2.8h0.6c0.4,0,0.8-0.1,1.1-0.5C130.9,36.1,130.9,35.4,130.5,34.8
			L130.5,34.8z M129.3,33.6c0.5,0,1.1,0.1,1.5,0.4c1,0.8,1.1,2.2,0.4,3.1c-0.1,0.1-0.2,0.3-0.4,0.4c-0.4,0.3-1,0.4-1.5,0.4h-1.4
			v-4.3L129.3,33.6z"/>
		<polygon class="st0" points="135.1,34.4 135.1,35.3 136.5,35.3 136.5,36 135.1,36 135.1,37.2 136.9,37.2 136.9,37.9 134.3,37.9
			134.3,33.6 136.9,33.6 136.9,34.4 		"/>
		<polygon class="st1" points="135.1,34.4 135.1,35.3 136.5,35.3 136.5,36 135.1,36 135.1,37.2 136.9,37.2 136.9,37.9 134.3,37.9
			134.3,33.6 136.9,33.6 136.9,34.4 		"/>
		<polygon class="st0" points="139.9,33.6 140.5,33.6 142.9,36.4 142.9,33.6 143.7,33.6 143.7,37.9 143.1,37.9 140.7,35.1
			140.7,37.9 139.9,37.9 		"/>
		<polygon class="st1" points="139.9,33.6 140.5,33.6 142.9,36.4 142.9,33.6 143.7,33.6 143.7,37.9 143.1,37.9 140.7,35.1
			140.7,37.9 139.9,37.9 		"/>
		<path class="st0" d="M147.1,35.8c0,0.8,0.6,1.5,1.4,1.5c0,0,0,0,0,0c0.5,0,0.9-0.2,1.2-0.6l0.6,0.5c-0.4,0.5-1.1,0.8-1.8,0.8
			c-1.2,0-2.2-1-2.2-2.2c0-1.2,1-2.2,2.2-2.2c0,0,0,0,0,0c0.6,0,1.2,0.2,1.6,0.6l-0.5,0.6c-0.3-0.3-0.7-0.4-1.1-0.5
			C147.7,34.3,147,34.9,147.1,35.8C147,35.8,147,35.8,147.1,35.8"/>
		<path class="st1" d="M147.1,35.8c0,0.8,0.6,1.5,1.4,1.5c0,0,0,0,0,0c0.5,0,0.9-0.2,1.2-0.6l0.6,0.5c-0.4,0.5-1.1,0.8-1.8,0.8
			c-1.2,0-2.2-1-2.2-2.2c0-1.2,1-2.2,2.2-2.2c0,0,0,0,0,0c0.6,0,1.2,0.2,1.6,0.6l-0.5,0.6c-0.3-0.3-0.7-0.4-1.1-0.5
			C147.7,34.3,147,35,147.1,35.8C147.1,35.8,147.1,35.8,147.1,35.8z"/>
		<polygon class="st0" points="153.6,34.4 153.6,35.3 155,35.3 155,36 153.6,36 153.6,37.2 155.5,37.2 155.5,37.9 152.8,37.9
			152.8,33.6 155.4,33.6 155.4,34.4 		"/>
		<polygon class="st1" points="153.6,34.4 153.6,35.3 155,35.3 155,36 153.6,36 153.6,37.2 155.5,37.2 155.5,37.9 152.8,37.9
			152.8,33.6 155.4,33.6 155.4,34.4 		"/>
	</g>
</g>
</svg>
