<svg xmlns="http://www.w3.org/2000/svg" viewBox="0 0 280 184"><defs><style>.cls-1{fill:#fff;}.cls-2{fill:#67cfe3;}.cls-3{fill:#b31aab;}.cls-4{fill:#e11383;}</style></defs><title>landing-logo</title><g id="Layer_2" data-name="Layer 2"><g id="Layer_1-2" data-name="Layer 1"><path class="cls-1" d="M27.84,178.42a2.3,2.3,0,0,0-1.93-.85H24.83v5h1.08a2.3,2.3,0,0,0,1.93-.85,2.76,2.76,0,0,0,0-3.31m-2.1-2.16a4.15,4.15,0,0,1,2.6.72,3.93,3.93,0,0,1,0,6.18,4.13,4.13,0,0,1-2.6.72H23.37v-7.62Z"/><path class="cls-1" d="M27.84,178.42a2.3,2.3,0,0,0-1.93-.85H24.83v5h1.08a2.3,2.3,0,0,0,1.93-.85,2.76,2.76,0,0,0,0-3.31Zm-2.1-2.16a4.15,4.15,0,0,1,2.6.72,3.93,3.93,0,0,1,0,6.18,4.13,4.13,0,0,1-2.6.72H23.37v-7.62Z"/><path class="cls-1" d="M39,182.69a2.62,2.62,0,1,0-2.51-2.62A2.53,2.53,0,0,0,39,182.69m0-6.54a3.93,3.93,0,1,1-4,3.92,3.86,3.86,0,0,1,4-3.92"/><path class="cls-1" d="M39,182.69a2.62,2.62,0,1,0-2.51-2.62A2.53,2.53,0,0,0,39,182.69Zm0-6.54a3.93,3.93,0,1,1-4,3.92A3.86,3.86,0,0,1,39,176.15Z"/><polygon class="cls-1" points="57.88 177.57 57.88 179.15 60.14 179.15 60.14 180.46 57.88 180.46 57.88 182.58 60.99 182.58 60.99 183.88 56.46 183.88 56.46 176.26 60.88 176.26 60.88 177.57 57.88 177.57"/><polygon class="cls-1" points="57.88 177.57 57.88 179.15 60.14 179.15 60.14 180.46 57.88 180.46 57.88 182.58 60.99 182.58 60.99 183.88 56.46 183.88 56.46 176.26 60.88 176.26 60.88 177.57 57.88 177.57"/><polygon class="cls-1" points="66.59 176.26 68.06 176.26 70.08 181.47 72.12 176.26 73.59 176.26 70.59 183.88 69.59 183.88 66.59 176.26"/><polygon class="cls-1" points="66.59 176.26 68.06 176.26 70.08 181.47 72.12 176.26 73.59 176.26 70.59 183.88 69.59 183.88 66.59 176.26"/><polygon class="cls-1" points="80.9 177.57 80.9 179.15 83.17 179.15 83.17 180.46 80.9 180.46 80.9 182.58 84.01 182.58 84.01 183.88 79.48 183.88 79.48 176.26 83.91 176.26 83.91 177.57 80.9 177.57"/><polygon class="cls-1" points="80.9 177.57 80.9 179.15 83.17 179.15 83.17 180.46 80.9 180.46 80.9 182.58 84.01 182.58 84.01 183.88 79.48 183.88 79.48 176.26 83.91 176.26 83.91 177.57 80.9 177.57"/><path class="cls-1" d="M92.74,179.2a.85.85,0,0,0,.71-.23.92.92,0,0,0,0-1.17.84.84,0,0,0-.71-.24H91.57v1.63Zm-1.17,1.31v3.37H90.15v-7.62h2.67a2.16,2.16,0,0,1,1.6.57,2.19,2.19,0,0,1,0,3.11,1.87,1.87,0,0,1-.73.45l2.74,3.5H94.68l-2.6-3.37Z"/><path class="cls-1" d="M92.74,179.2a.85.85,0,0,0,.71-.23.92.92,0,0,0,0-1.17.84.84,0,0,0-.71-.24H91.57v1.63Zm-1.17,1.31v3.37H90.15v-7.62h2.67a2.16,2.16,0,0,1,1.6.57,2.19,2.19,0,0,1,0,3.11,1.87,1.87,0,0,1-.73.45l2.74,3.5H94.68l-2.6-3.37Z"/><polygon class="cls-1" points="104.57 180.43 104.57 183.88 103.17 183.88 103.17 180.43 100.69 176.26 102.28 176.26 103.87 178.94 105.45 176.26 107.05 176.26 104.57 180.43"/><polygon class="cls-1" points="104.57 180.43 104.57 183.88 103.17 183.88 103.17 180.43 100.69 176.26 102.28 176.26 103.87 178.94 105.45 176.26 107.05 176.26 104.57 180.43"/><polygon class="cls-1" points="117.38 176.26 117.38 177.57 115.41 177.57 115.41 183.88 113.97 183.88 113.97 177.57 111.99 177.57 111.99 176.26 117.38 176.26"/><polygon class="cls-1" points="117.38 176.26 117.38 177.57 115.41 177.57 115.41 183.88 113.97 183.88 113.97 177.57 111.99 177.57 111.99 176.26 117.38 176.26"/><polygon class="cls-1" points="128.6 180.46 124.81 180.46 124.81 183.88 123.35 183.88 123.35 176.26 124.81 176.26 124.81 179.15 128.6 179.15 128.6 176.26 130.06 176.26 130.06 183.88 128.6 183.88 128.6 180.46"/><polygon class="cls-1" points="128.6 180.46 124.81 180.46 124.81 183.88 123.35 183.88 123.35 176.26 124.81 176.26 124.81 179.15 128.6 179.15 128.6 176.26 130.06 176.26 130.06 183.88 128.6 183.88 128.6 180.46"/><rect class="cls-1" x="135.95" y="176.26" width="1.14" height="7.62"/><rect class="cls-1" x="135.95" y="176.26" width="1.14" height="7.62"/><polygon class="cls-1" points="142.98 176.26 144.01 176.26 148.23 181.23 148.23 176.26 149.69 176.26 149.69 183.88 148.66 183.88 144.44 178.92 144.44 183.88 142.98 183.88 142.98 176.26"/><polygon class="cls-1" points="142.98 176.26 144.01 176.26 148.23 181.23 148.23 176.26 149.69 176.26 149.69 183.88 148.66 183.88 144.44 178.92 144.44 183.88 142.98 183.88 142.98 176.26"/><path class="cls-1" d="M157.19,180.07a2.56,2.56,0,0,0,2.6,2.62,2.66,2.66,0,0,0,1.7-.59v-1.65h-2v-1.31h3.42v3.39a4,4,0,0,1-3.2,1.46,3.93,3.93,0,1,1,0-7.85,4,4,0,0,1,2.78,1.09l-.95,1a2.6,2.6,0,0,0-1.85-.79,2.54,2.54,0,0,0-2.53,2.62"/><path class="cls-1" d="M157.19,180.07a2.56,2.56,0,0,0,2.6,2.62,2.66,2.66,0,0,0,1.7-.59v-1.65h-2v-1.31h3.42v3.39a4,4,0,0,1-3.2,1.46,3.93,3.93,0,1,1,0-7.85,4,4,0,0,1,2.78,1.09l-.95,1a2.6,2.6,0,0,0-1.85-.79A2.54,2.54,0,0,0,157.19,180.07Z"/><path class="cls-1" d="M178.42,177.46a.44.44,0,0,0-.4.47,1.2,1.2,0,0,0,.36.72,1.06,1.06,0,0,0,.44-.72.43.43,0,0,0-.4-.47m.32,5.23a2,2,0,0,0,1.1-.3l-1.75-2.1a1.36,1.36,0,0,0-.8,1.21,1.29,1.29,0,0,0,1.45,1.19m3.09-3.72a6.42,6.42,0,0,1,.22,1.53,4,4,0,0,1-.45,2l1.21,1.44h-1.7l-.39-.46a3.58,3.58,0,0,1-2,.57,2.61,2.61,0,0,1-2.75-2.5,2.72,2.72,0,0,1,1.31-2.24,2.46,2.46,0,0,1-.58-1.46,1.77,1.77,0,0,1,3.53.13,2.17,2.17,0,0,1-1,1.69l1.41,1.68a3.26,3.26,0,0,0,.1-.82,4.35,4.35,0,0,0-.18-1.2Z"/><path class="cls-1" d="M178.42,177.46a.44.44,0,0,0-.4.47,1.2,1.2,0,0,0,.36.72,1.06,1.06,0,0,0,.44-.72A.43.43,0,0,0,178.42,177.46Zm.32,5.23a2,2,0,0,0,1.1-.3l-1.75-2.1a1.36,1.36,0,0,0-.8,1.21A1.29,1.29,0,0,0,178.74,182.69Zm3.09-3.72a6.42,6.42,0,0,1,.22,1.53,4,4,0,0,1-.45,2l1.21,1.44h-1.7l-.39-.46a3.58,3.58,0,0,1-2,.57,2.61,2.61,0,0,1-2.75-2.5,2.72,2.72,0,0,1,1.31-2.24,2.46,2.46,0,0,1-.58-1.46,1.77,1.77,0,0,1,3.53.13,2.17,2.17,0,0,1-1,1.69l1.41,1.68a3.26,3.26,0,0,0,.1-.82,4.35,4.35,0,0,0-.18-1.2Z"/><polygon class="cls-1" points="195.72 176.26 196.75 176.26 200.97 181.23 200.97 176.26 202.43 176.26 202.43 183.88 201.4 183.88 197.18 178.92 197.18 183.88 195.72 183.88 195.72 176.26"/><polygon class="cls-1" points="195.72 176.26 196.75 176.26 200.97 181.23 200.97 176.26 202.43 176.26 202.43 183.88 201.4 183.88 197.18 178.92 197.18 183.88 195.72 183.88 195.72 176.26"/><path class="cls-1" d="M211,182.69a2.62,2.62,0,1,0-2.51-2.62,2.53,2.53,0,0,0,2.51,2.62m0-6.54a3.93,3.93,0,1,1-4,3.92,3.86,3.86,0,0,1,4-3.92"/><path class="cls-1" d="M211,182.69a2.62,2.62,0,1,0-2.51-2.62A2.53,2.53,0,0,0,211,182.69Zm0-6.54a3.93,3.93,0,1,1-4,3.92A3.86,3.86,0,0,1,211,176.15Z"/><polygon class="cls-1" points="224.9 176.26 224.9 177.57 222.92 177.57 222.92 183.88 221.48 183.88 221.48 177.57 219.51 177.57 219.51 176.26 224.9 176.26"/><polygon class="cls-1" points="224.9 176.26 224.9 177.57 222.92 177.57 222.92 183.88 221.48 183.88 221.48 177.57 219.51 177.57 219.51 176.26 224.9 176.26"/><polygon class="cls-1" points="236.12 180.46 232.33 180.46 232.33 183.88 230.87 183.88 230.87 176.26 232.33 176.26 232.33 179.15 236.12 179.15 236.12 176.26 237.58 176.26 237.58 183.88 236.12 183.88 236.12 180.46"/><polygon class="cls-1" points="236.12 180.46 232.33 180.46 232.33 183.88 230.87 183.88 230.87 176.26 232.33 176.26 232.33 179.15 236.12 179.15 236.12 176.26 237.58 176.26 237.58 183.88 236.12 183.88 236.12 180.46"/><rect class="cls-1" x="243.47" y="176.26" width="1.14" height="7.62"/><rect class="cls-1" x="243.47" y="176.26" width="1.14" height="7.62"/><polygon class="cls-1" points="251.21 176.26 252.24 176.26 256.46 181.23 256.46 176.26 257.93 176.26 257.93 183.88 256.9 183.88 252.68 178.92 252.68 183.88 251.21 183.88 251.21 176.26"/><polygon class="cls-1" points="251.21 176.26 252.24 176.26 256.46 181.23 256.46 176.26 257.93 176.26 257.93 183.88 256.9 183.88 252.68 178.92 252.68 183.88 251.21 183.88 251.21 176.26"/><path class="cls-1" d="M264.7,180.07a2.56,2.56,0,0,0,2.6,2.62,2.67,2.67,0,0,0,1.7-.59v-1.65h-2v-1.31h3.42v3.39a4,4,0,0,1-3.19,1.46,3.93,3.93,0,1,1,0-7.85,4,4,0,0,1,2.78,1.09l-.95,1a2.6,2.6,0,0,0-1.85-.79,2.54,2.54,0,0,0-2.53,2.62"/><path class="cls-1" d="M264.7,180.07a2.56,2.56,0,0,0,2.6,2.62,2.67,2.67,0,0,0,1.7-.59v-1.65h-2v-1.31h3.42v3.39a4,4,0,0,1-3.19,1.46,3.93,3.93,0,1,1,0-7.85,4,4,0,0,1,2.78,1.09l-.95,1a2.6,2.6,0,0,0-1.85-.79A2.54,2.54,0,0,0,264.7,180.07Z"/><rect class="cls-2" x="200.16" y="107.15" width="30.21" height="43.72"/><rect class="cls-3" x="200.16" y="81.71" width="30.21" height="25.44"/><rect class="cls-4" x="175.61" y="81.71" width="24.55" height="25.44"/><rect class="cls-4" x="230.37" y="81.71" width="24.55" height="25.44"/><rect class="cls-4" x="140.27" y="81.72" width="30.21" height="36.53"/><path class="cls-3" d="M140.27,151.91a33.88,33.88,0,0,0,30.21-33.66H140.27Z"/><path class="cls-2" d="M132.9,118.25V81.72H102.69v36.53a33.88,33.88,0,0,0,33.9,33.86,34.36,34.36,0,0,0,3.69-.2V118.25Z"/><path class="cls-4" d="M50.18,119.17l-18.12,18.1a36.27,36.27,0,0,0,46.65,10.4Z"/><path class="cls-3" d="M78.72,147.68a36.18,36.18,0,0,0,4-61L50.19,119.18Z"/><path class="cls-2" d="M61.32,79.7a36.19,36.19,0,0,0-29.26,57.57l18.12-18.1L82.71,86.69a36.09,36.09,0,0,0-21.39-7"/><rect class="cls-4" x="37.25" y="49.68" width="30.21" height="19.49"/><rect class="cls-4" x="37.25" y="0.01" width="30.21" height="23.56"/><rect class="cls-3" x="37.25" y="23.57" width="30.21" height="26.11"/><polygon class="cls-2" points="30.21 23.57 30.21 0.01 0 0.01 0 69.17 30.21 69.17 30.21 49.68 37.25 49.68 37.25 23.57 30.21 23.57"/><polygon class="cls-2" points="111.5 49.22 96.4 30.57 96.4 69.17 126.61 69.17 126.61 30.57 111.5 49.22"/><polygon class="cls-4" points="151.36 0.01 126.61 0.01 126.61 30.57 151.36 0.01"/><polygon class="cls-4" points="71.64 0.01 96.4 30.57 96.4 0.01 71.64 0.01"/><polygon class="cls-3" points="126.61 30.57 126.61 0.01 96.4 0.01 96.4 30.57 111.5 49.22 126.61 30.57"/><path class="cls-2" d="M190.14.06V0h-34.6V34.62A34.58,34.58,0,0,1,190.14.06"/><path class="cls-2" d="M155.55,34.61V69.17h34.6a34.58,34.58,0,0,1-34.6-34.56"/><path class="cls-4" d="M190.14.06V69.17a34.56,34.56,0,1,0,0-69.12"/><path class="cls-3" d="M155.55,34.61a34.58,34.58,0,0,0,34.6,34.56V.05a34.58,34.58,0,0,0-34.6,34.56"/><polygon class="cls-4" points="250.42 0.01 228.93 0.01 250.42 21.48 250.42 21.48 280 21.48 280 0.01 250.42 0.01"/><polygon class="cls-4" points="250.42 47.7 250.42 47.7 228.93 69.17 250.42 69.17 280 69.17 280 47.7 250.42 47.7"/><polygon class="cls-2" points="227.71 0.01 227.72 0.01 227.71 0 227.71 0.01"/><polygon class="cls-2" points="250.42 47.7 250.42 47.7 263.54 34.59 250.42 21.48 250.42 21.48 250.42 47.7"/><polygon class="cls-2" points="250.42 21.48 250.42 21.48 250.42 21.48 250.42 21.48"/><polygon class="cls-2" points="250.42 47.7 250.42 47.7 250.42 47.7 250.42 47.7"/><polygon class="cls-3" points="228.93 0.01 228.92 0.01 228.92 21.48 228.92 47.7 228.92 69.17 228.93 69.17 250.42 47.7 250.42 47.7 250.42 21.48 250.42 21.48 228.93 0.01"/></g></g></svg>